<svg width="60" height="56" fill="none" xmlns="http://www.w3.org/2000/svg"><path fill-rule="evenodd" clip-rule="evenodd" d="M57.17 26.169a3.431 3.431 0 01-.631-2.99c1.45-5.544-.78-11.357-5.55-14.465a12.896 12.896 0 00-13.646-.316.887.887 0 00-.316 1.206.868.868 0 001.193.32 11.173 11.173 0 0111.822.273c4.133 2.693 6.066 7.728 4.808 12.53a5.216 5.216 0 00.959 4.547 9.487 9.487 0 01.565 11.007c-2.697 4.227-6.992 4.3-7.277 4.3-.003 0-3.883.289-8.813 1.841-3.462 1.091-6.333 2.438-8.69 3.842a529.205 529.205 0 004.39-8.204c2.962-1.41 6.766-2.648 11.167-2.809a.879.879 0 00.842-.913.879.879 0 00-.904-.85c-3.77.137-7.105 1.024-9.818 2.09a234.103 234.103 0 003.493-7.055c1.547-.485 3.661-.947 6.26-1.03a.878.878 0 00.845-.91.877.877 0 00-.9-.853c-1.71.054-3.233.259-4.561.54.968-1.456 1.81-3.463 1.845-6.067.065-4.826-2.92-9.133-7.429-10.718A3.388 3.388 0 0134.72 9.29C33.04 3.81 28.098.079 22.421 0a12.936 12.936 0 00-6.649 1.732.887.887 0 00-.325 1.204.87.87 0 001.192.328 11.192 11.192 0 015.759-1.5c4.917.068 9.198 3.301 10.653 8.046a5.151 5.151 0 003.2 3.341c3.796 1.335 6.31 4.962 6.256 9.027-.068 5.089-3.756 7.449-3.919 7.55-.017.01-3.133 2.322-6.497 6.28-2.363 2.782-4.09 5.462-5.351 7.916a535.703 535.703 0 00-.584-9.295c1.775-2.79 4.352-5.89 7.992-8.38a.888.888 0 00.234-1.225.867.867 0 00-1.213-.236c-3.124 2.137-5.485 4.677-7.226 7.035-.14-1.748-.29-3.486-.455-5.15-.094-.958-.19-1.86-.287-2.706 1.1-1.292 2.645-2.79 4.767-4.226.4-.271.507-.82.239-1.224a.867.867 0 00-1.212-.242 32.805 32.805 0 00-4.096 3.255 60.582 60.582 0 00-.513-3.226c-.494-2.57-1.005-4.06-2.156-4.076h-.018c-1.139 0-1.687 1.474-2.247 4.016a61.554 61.554 0 00-.622 3.35 26.111 26.111 0 00-3.984-3.506.867.867 0 00-1.218.208.888.888 0 00.206 1.23c2.12 1.522 3.628 3.089 4.651 4.358-.119.843-.239 1.74-.359 2.696a276.754 276.754 0 00-.593 5.135c-1.676-2.405-3.97-5.009-7.034-7.231a.867.867 0 00-1.219.203.888.888 0 00.2 1.23c3.576 2.593 6.068 5.756 7.766 8.59a537.271 537.271 0 00-.834 9.284c-1.572-3.26-3.486-6.008-5.137-8.06-3.256-4.05-6.25-6.402-6.278-6.424a.854.854 0 00-.049-.034C5.29 29.16 1.68 26.7 1.747 21.62c.055-4.065 2.666-7.622 6.497-8.852a5.146 5.146 0 003.288-3.252 11.38 11.38 0 012.382-4.053.889.889 0 00-.053-1.246.867.867 0 00-1.233.052 13.138 13.138 0 00-2.75 4.68 3.386 3.386 0 01-2.163 2.137C3.165 12.546.065 16.771 0 21.596c-.078 5.792 3.903 8.742 4.472 9.133.35.275 11.192 8.991 13.447 21.572.315 1.757 1.77 3.07 3.508 3.206.587.33 1.234.493 1.878.493a3.86 3.86 0 002.8-1.203c8.791-9.246 22.65-10.425 23.013-10.453.674-.01 5.63-.258 8.723-5.107a11.265 11.265 0 00-.672-13.068zM23.808 52.043a2.14 2.14 0 01-2.108 1.712 2.138 2.138 0 01-2.062-1.769 29.965 29.965 0 00-1.24-4.658c.33-4.333.995-12.464 1.846-19.493.866-7.155 1.547-10.047 1.954-11.215.375 1.179.978 4.089 1.652 11.264.662 7.053 1.11 15.203 1.322 19.543a30.043 30.043 0 00-1.364 4.616zm1.534.871c-.023.114-.036.181-.042.196a30 30 0 013.127-2.717c2.325-4.205 6.253-11.423 9.357-17.72-10.075 8.29-12.133 18.681-12.442 20.241z" fill="url(#paint0_linear)"/><defs><linearGradient id="paint0_linear" x1="90.409" y1="50.211" x2="49.47" y2="-40.093" gradientUnits="userSpaceOnUse"><stop stop-color="#7FB800"/><stop offset="1" stop-color="#0F9B0F"/></linearGradient></defs></svg>