<svg width="58" height="56" fill="none" xmlns="http://www.w3.org/2000/svg"><path fill-rule="evenodd" clip-rule="evenodd" d="M54.355 50.077V23.204c3.333.573 5.052-3.888 2.212-5.721l-5.521-3.563a.85.85 0 10-.921 1.43l5.521 3.562c1.555 1.003.062 3.44-1.547 2.401L30.181 5.88a2.182 2.182 0 00-2.362 0L3.901 21.313c-1.575 1.016-3.131-1.379-1.547-2.4L28.74 1.885a.48.48 0 01.52 0l17.526 11.31a.85.85 0 10.921-1.43L30.181.457a2.181 2.181 0 00-2.362 0L1.433 17.483c-2.84 1.833-1.12 6.292 2.212 5.72v19.973a.85.85 0 101.7 0V22.405L28.74 7.309a.48.48 0 01.52 0l23.395 15.096v27.672h-6.559c-4.534-2.928-10.24-4.603-16.185-4.758.125-1.013.551-2.793 1.984-4.217.062.014.125.025.19.032 12.461 1.298 16.618-8.204 15.505-10.36a.917.917 0 00-.016-.03l-.004-.008-.004-.008c-.181-.312-.582-.695-2.09-.889-1.008-.13-2.206-.12-3.374.026-5.365.675-9.658 3.924-11.292 9.69a1.13 1.13 0 00-.04.27 8.155 8.155 0 00-.91 1.04v-5.634c6.47-5.15 4.96-13.128.233-19.593a1.338 1.338 0 00-1.08-.538c-.43 0-.835.2-1.081.538-4.724 6.46-6.247 14.434.23 19.592v5.548a7.433 7.433 0 00-.933-.988 1.095 1.095 0 00-.039-.235c-.88-3.108-2.525-5.546-4.886-7.248-2.897-2.086-6.783-2.855-9.78-2.468-1.495.192-1.902.57-2.085.881l-.003.005-.002.003C9.382 32.54 12.7 41.26 23.547 41.26c.503 0 2.103-.049 2.59-.167 1.54 1.384 1.922 3.203 2.01 4.224-5.966.146-11.694 1.822-16.243 4.76h-6.56V47.17a.85.85 0 10-1.699 0v2.907h-.74A2.909 2.909 0 000 52.983a2.909 2.909 0 002.905 2.907h52.19A2.909 2.909 0 0058 52.983a2.909 2.909 0 00-2.905-2.906h-.74zM33.78 39.548c4.562-3.474 9.785-6.008 12.123-7.063-1.148 3.807-5.323 7.297-12.123 7.063zm-.5-1.751c2.102-4.37 6.45-6.397 10.812-6.354-2.59 1.22-6.854 3.422-10.812 6.354zm-8.466.199c-4.155-2.888-8.564-5.257-11.116-6.55 4.458-.122 9.002 1.951 11.116 6.55zm-12.695-5.44c2.313 1.144 7.325 3.747 11.954 6.996-6.65.18-10.767-3.227-11.954-6.995zm17.742.396V18.368c2.96 4.942 4.026 10.496 0 14.584zm-1.7-14.581v14.58c-4.024-4.089-2.956-9.642 0-14.58zm14.495 31.706H15.344c8.267-4.091 19.031-4.099 27.312 0zM2.905 54.19h52.19a1.207 1.207 0 000-2.412H2.905a1.207 1.207 0 000 2.412z" fill="url(#paint0_linear)"/><defs><linearGradient id="paint0_linear" x1="87.963" y1="50.124" x2="46.555" y2="-39.094" gradientUnits="userSpaceOnUse"><stop stop-color="#7FB800"/><stop offset="1" stop-color="#0F9B0F"/></linearGradient></defs></svg>