<svg width="57" height="56" fill="none" xmlns="http://www.w3.org/2000/svg"><path d="M21.973 5.14a.928.928 0 100-1.855.928.928 0 000 1.855z" fill="url(#paint0_linear)"/><path d="M16.419 9.838h11.108a.83.83 0 000-1.66H16.42a.83.83 0 100 1.66z" fill="url(#paint1_linear)"/><path d="M12.931 23.44l4.658-2.388a.83.83 0 10-.758-1.477l-3.449 1.768v-1.03a.83.83 0 10-1.66 0v2.389a.831.831 0 001.209.739z" fill="url(#paint2_linear)"/><path d="M21.555 22.338h7.33a.83.83 0 100-1.66h-7.33a.83.83 0 100 1.66z" fill="url(#paint3_linear)"/><path d="M12.931 31.032l4.658-2.388a.83.83 0 00-.758-1.478l-3.449 1.77v-1.03a.83.83 0 10-1.66 0v2.388c0 .621.66 1.02 1.209.738z" fill="url(#paint4_linear)"/><path d="M21.555 29.93h7.33a.83.83 0 100-1.66h-7.33a.83.83 0 000 1.66z" fill="url(#paint5_linear)"/><path d="M12.552 38.715c.359 0 .113.01 5.037-2.48a.83.83 0 10-.758-1.477l-3.449 1.769v-1.03a.83.83 0 10-1.66 0v2.388c0 .458.371.83.83.83z" fill="url(#paint6_linear)"/><path fill-rule="evenodd" clip-rule="evenodd" d="M33.035 54.702H7.563C3.393 54.702 0 51.31 0 47.14V13.38c0-4.17 3.393-7.563 7.563-7.563H9.77a3.57 3.57 0 013.323-2.277h4.432A4.576 4.576 0 0121.973.024a4.576 4.576 0 014.448 3.516h4.432a3.57 3.57 0 013.322 2.277h2.209c4.17 0 7.562 3.393 7.562 7.563v11.285c1.785-.73 3.744-.751 5.421.038a.83.83 0 01.398.398c.818 1.74.76 3.863-.112 5.754 6.04 1.99 8.549 9.415 6.054 16.012a.83.83 0 11-1.553-.587c2.99-7.907-2.06-16.62-11.262-13.695-.48.153-.81.283-1.055.38-.462.184-.624.248-.935.117-12.757-5.388-18.467 10.761-8.098 19.394.333.278.593.485.925.702-.014-.005 3.256 2.299 6.89.376l.096-.051c.32-.174.701-.174 1.02 0 2.431 1.324 5.341.978 7.444-.651 1.424-1.103 2.619-2.38 3.552-3.795a.83.83 0 011.386.915 17.532 17.532 0 01-3.92 4.192c-2.601 2.015-6.102 2.378-8.972.945-2.575 1.286-5.677 1.134-8.19-.407zm8.19-23.282c.177-.07.432-.166.547-.208-.424-3.606-4.41-6.396-7.704-5.125-.545 1.412-.325 3.028.381 4.363 2.283-.346 4.607.101 6.776.97zm7.157-5.333c.516 1.336.372 2.947-.383 4.37-1.46-.218-3.007-.13-4.618.266a7.811 7.811 0 00-1.113-2.897c1.754-1.905 4.26-2.455 6.114-1.74zm-6.096-.494V13.38a5.91 5.91 0 00-5.902-5.902h-1.967v3.302c0 .208-.019.411-.053.61h1.604a2.48 2.48 0 012.477 2.476v10.776a8.123 8.123 0 012.78 1.869 8.58 8.58 0 011.061-.918zM13.094 5.201h5.146a.83.83 0 00.829-.781 2.911 2.911 0 012.904-2.736 2.912 2.912 0 012.905 2.736.83.83 0 00.828.78h5.146a1.91 1.91 0 011.905 1.905c-.003.842.001 1.512.004 2.051.012 1.9.014 2.182-.336 2.696-.351.514-.95.832-1.572.832-5.654-.001-9.521 0-12.174.001-5.645.002-5.788.003-5.922-.03-.014-.002-.027-.006-.045-.01a1.909 1.909 0 01-1.522-1.865V8.005c-.002-.9-.002-.995.01-1.089l.004-.034.004-.029a1.906 1.906 0 011.886-1.652zM7.563 7.478A5.91 5.91 0 001.66 13.38v33.76a5.91 5.91 0 005.903 5.902h23.372a16.803 16.803 0 01-3.125-3.912H7.977a2.48 2.48 0 01-2.476-2.477V27.16a.83.83 0 111.66 0v19.493c0 .45.366.816.816.816h19.004c-1.258-2.96-1.61-6.366-.684-9.528.038-.13.116-.379.13-.42h-4.873a.83.83 0 110-1.66h5.56c1.177-2.327 3.107-4.146 5.678-5.012-.914-1.997-.883-4.1-.108-5.748.139-.294.362-.388.62-.496l.004-.002c1.019-.429 2.211-.6 3.476-.413V13.866a.817.817 0 00-.817-.816H33.6a3.533 3.533 0 01-1.854 1.18l-.143.038c-.454.117-.95.074-18.51.076a3.55 3.55 0 01-2.748-1.294H7.978a.817.817 0 00-.816.816v9.973a.83.83 0 11-1.66 0v-9.972a2.48 2.48 0 012.476-2.477h1.605a3.567 3.567 0 01-.054-.61V7.478H7.563z" fill="url(#paint7_linear)"/><defs><linearGradient id="paint0_linear" x1="23.859" y1="4.948" x2="22.448" y2="2.023" gradientUnits="userSpaceOnUse"><stop stop-color="#7FB800"/><stop offset="1" stop-color="#0F9B0F"/></linearGradient><linearGradient id="paint1_linear" x1="34.954" y1="9.667" x2="34.752" y2="6.452" gradientUnits="userSpaceOnUse"><stop stop-color="#7FB800"/><stop offset="1" stop-color="#0F9B0F"/></linearGradient><linearGradient id="paint2_linear" x1="21.304" y1="23.114" x2="19.082" y2="15.929" gradientUnits="userSpaceOnUse"><stop stop-color="#7FB800"/><stop offset="1" stop-color="#0F9B0F"/></linearGradient><linearGradient id="paint3_linear" x1="34.359" y1="22.166" x2="34.074" y2="18.964" gradientUnits="userSpaceOnUse"><stop stop-color="#7FB800"/><stop offset="1" stop-color="#0F9B0F"/></linearGradient><linearGradient id="paint4_linear" x1="21.304" y1="30.706" x2="19.082" y2="23.521" gradientUnits="userSpaceOnUse"><stop stop-color="#7FB800"/><stop offset="1" stop-color="#0F9B0F"/></linearGradient><linearGradient id="paint5_linear" x1="34.359" y1="29.758" x2="34.074" y2="26.556" gradientUnits="userSpaceOnUse"><stop stop-color="#7FB800"/><stop offset="1" stop-color="#0F9B0F"/></linearGradient><linearGradient id="paint6_linear" x1="21.304" y1="38.297" x2="19.082" y2="31.113" gradientUnits="userSpaceOnUse"><stop stop-color="#7FB800"/><stop offset="1" stop-color="#0F9B0F"/></linearGradient><linearGradient id="paint7_linear" x1="85.937" y1="50.193" x2="43.696" y2="-38.45" gradientUnits="userSpaceOnUse"><stop stop-color="#7FB800"/><stop offset="1" stop-color="#0F9B0F"/></linearGradient></defs></svg>