<svg width="60" height="56" viewBox="0 0 60 56" fill="none" xmlns="http://www.w3.org/2000/svg">
<path fill-rule="evenodd" clip-rule="evenodd" d="M57.1702 26.169C56.504 25.3313 56.268 24.2135 56.5388 23.1788C57.9899 17.6353 55.7593 11.8222 50.9881 8.71384C46.8418 6.01248 41.6133 5.89129 37.3431 8.39793C36.926 8.64277 36.7844 9.18281 37.0266 9.60413C37.2689 10.0256 37.8033 10.1688 38.2202 9.92392C41.9197 7.75213 46.4496 7.85672 50.0418 10.197C54.175 12.8899 56.1075 17.9254 54.8504 22.7275C54.4381 24.3018 54.7965 26.0017 55.8087 27.2745C58.3269 30.441 58.5541 34.8641 56.3741 38.2808C53.6773 42.5075 49.3821 42.5806 49.097 42.5806C49.0937 42.5806 45.2136 42.8697 40.2845 44.4225C36.8223 45.5132 33.9514 46.8603 31.5937 48.2643C32.9063 45.8598 34.4451 43.0037 35.9846 40.0599C38.9464 38.6507 42.7499 37.4118 47.1515 37.2513C47.6335 37.2338 48.0099 36.8247 47.9927 36.3376C47.9753 35.8504 47.5695 35.4714 47.0885 35.4875C43.3191 35.6251 39.9841 36.5122 37.271 37.5782C38.5192 35.1479 39.7248 32.7296 40.7639 30.5229C42.311 30.0378 44.4255 29.576 47.0236 29.4934C47.5057 29.4781 47.8842 29.0708 47.8689 28.5839C47.8538 28.0967 47.4512 27.7143 46.9689 27.7296C45.2581 27.784 43.7361 27.989 42.4079 28.2694C43.3758 26.8135 44.2183 24.8069 44.2533 22.2032C44.318 17.3773 41.3326 13.0699 36.8242 11.4853C35.8198 11.132 35.0328 10.311 34.7193 9.28858C33.0397 3.81127 28.0976 0.0790147 22.4212 0.00124472C20.0878 -0.0311104 17.7878 0.567871 15.7721 1.73277C15.3534 1.97479 15.2081 2.51377 15.4475 2.93662C15.687 3.35983 16.2205 3.50654 16.639 3.26464C18.3838 2.25634 20.3711 1.73772 22.3975 1.76572C27.3148 1.83313 31.5963 5.0663 33.0513 9.81097C33.5284 11.3665 34.7243 12.6154 36.2506 13.152C40.0474 14.4866 42.5616 18.1144 42.5071 22.1793C42.4389 27.2677 38.7508 29.6277 38.5881 29.7292C38.5715 29.7393 35.455 32.051 32.0909 36.0099C29.7283 38.7905 28.0016 41.4714 26.7399 43.9254C26.593 41.233 26.3978 37.9795 26.1557 34.6304C27.9308 31.8394 30.5077 28.7409 34.1482 26.2499C34.5475 25.9767 34.6521 25.428 34.3816 25.0246C34.1113 24.6209 33.5682 24.5155 33.169 24.7887C30.0454 26.9259 27.6835 29.4661 25.943 31.8241C25.8039 30.0761 25.6523 28.3378 25.4882 26.6748C25.3937 25.7164 25.298 24.8148 25.2012 23.9681C26.3002 22.6761 27.8464 21.1786 29.9677 19.7419C30.3683 19.4706 30.4753 18.9224 30.2068 18.5178C29.9382 18.1128 29.3957 18.0048 28.9954 18.2761C27.322 19.4095 25.974 20.5195 24.899 21.5311C24.73 20.2835 24.5586 19.2043 24.386 18.3055C23.8921 15.7354 23.381 14.2443 22.23 14.2287L22.2118 14.2286C21.0734 14.2286 20.5252 15.7028 19.9654 18.245C19.7613 19.172 19.5536 20.2927 19.3434 21.5946C18.3064 20.4698 16.9975 19.2656 15.3586 18.0892C14.9656 17.807 14.4204 17.9003 14.1412 18.2974C13.8618 18.6948 13.9542 19.2457 14.3474 19.5278C16.4665 21.0489 17.9751 22.6156 18.9983 23.8846C18.879 24.728 18.7591 25.6259 18.639 26.5809C18.4305 28.2388 18.2323 29.9723 18.0463 31.7159C16.3698 29.3109 14.0769 26.7071 11.0118 24.4849C10.6199 24.2007 10.0743 24.2914 9.79337 24.6875C9.51219 25.0834 9.60195 25.6349 9.99386 25.9188C13.569 28.5107 16.061 31.6736 17.7591 34.5077C17.427 37.8519 17.1442 41.1024 16.9249 43.7919C15.3533 40.5317 13.4387 37.7839 11.7883 35.7314C8.5323 31.6822 5.53803 29.3296 5.50973 29.3083C5.4939 29.2964 5.47783 29.2851 5.46118 29.2743C5.28851 29.1597 1.67902 26.6993 1.74725 21.6204C1.80174 17.5554 4.4126 13.9978 8.24378 12.7679C9.78382 12.2735 11.0131 11.0579 11.5316 9.51577C12.0391 8.00685 12.8405 6.64334 13.9136 5.46338C14.24 5.10442 14.2166 4.54638 13.8615 4.21659C13.5064 3.88657 12.954 3.91045 12.6278 4.26918C11.3893 5.63116 10.4641 7.20527 9.87801 8.94809C9.5371 9.96134 8.72848 10.7607 7.71483 11.0862C3.16585 12.5468 0.0658604 16.7706 0.00112447 21.5968C-0.0766518 27.3882 3.90426 30.3385 4.47291 30.7288C4.82221 31.0042 15.6649 39.7203 17.9198 52.3006C18.2348 54.0576 19.6897 55.3704 21.4284 55.5073C22.0151 55.8376 22.6616 56 23.3057 56C24.3336 56 25.3535 55.5888 26.1061 54.7972C34.8971 45.5514 48.756 44.3717 49.1191 44.3444C49.7927 44.3344 54.7485 44.086 57.8422 39.2372C60.4303 35.1806 60.1603 29.9289 57.1702 26.169ZM23.8078 52.0433C23.5995 53.049 22.7148 53.7638 21.6995 53.7553C20.6864 53.7414 19.8193 52.9973 19.638 51.9861C19.3474 50.365 18.9192 48.8089 18.3982 47.3284C18.7273 42.9951 19.3931 34.864 20.2443 27.835C21.1105 20.6805 21.7912 17.7881 22.1981 16.62C22.5735 17.7988 23.1762 20.7088 23.8501 27.8844C24.5124 34.9366 24.96 43.087 25.1725 47.4266C24.5064 49.1705 24.0796 50.7308 23.8078 52.0433ZM25.3418 52.9142C25.3192 53.0282 25.3059 53.0951 25.2996 53.1104C26.1446 52.2635 27.1786 51.338 28.4266 50.3927C30.7524 46.188 34.6804 38.9697 37.7836 32.6736C27.7087 40.9629 25.6507 51.3544 25.3418 52.9142Z" fill="url(#paint0_linear)"/>
<defs>
<linearGradient id="paint0_linear" x1="90.4094" y1="50.2114" x2="49.4698" y2="-40.093" gradientUnits="userSpaceOnUse">
<stop stop-color="#7FB800"/>
<stop offset="1" stop-color="#0F9B0F"/>
</linearGradient>
</defs>
</svg>
