<svg width="58" height="56" viewBox="0 0 58 56" fill="none" xmlns="http://www.w3.org/2000/svg">
<path fill-rule="evenodd" clip-rule="evenodd" d="M54.3547 50.0774V23.2044C57.6883 23.777 59.4072 19.3159 56.5672 17.483L51.0456 13.9202C50.6514 13.6659 50.1255 13.7795 49.8711 14.174C49.6168 14.5686 49.7304 15.0948 50.1247 15.3493L55.6464 18.912C57.2006 19.9152 55.7081 22.3516 54.0992 21.3132L30.1806 5.87975C29.4635 5.41702 28.5366 5.41702 27.8193 5.87975L3.90086 21.3133C2.32614 22.3288 0.76977 19.9342 2.35367 18.9121L28.7403 1.88607C28.8981 1.78427 29.102 1.78416 29.2599 1.88618L46.7864 13.1951C47.1809 13.4495 47.7066 13.3359 47.9608 12.9414C48.2151 12.5468 48.1015 12.0206 47.7072 11.7661L30.1808 0.457161C29.4635 -0.00580239 28.5365 -0.00580242 27.8193 0.457048L1.43269 17.483C-1.40772 19.316 0.31302 23.7752 3.6453 23.2027V43.1759C3.6453 43.6455 4.0257 44.0261 4.49491 44.0261C4.96412 44.0261 5.34452 43.6455 5.34452 43.1759V22.405L28.74 7.30889C28.898 7.20709 29.1021 7.20709 29.2598 7.30889L52.6554 22.4049V50.0774H46.0962C41.5617 47.1486 35.8563 45.4742 29.9108 45.3186C30.0358 44.3065 30.4623 42.5264 31.895 41.1019C31.9572 41.1157 32.0204 41.1269 32.0849 41.1336C44.5464 42.4323 48.7031 32.93 47.5897 30.7739C47.5847 30.7639 47.5796 30.754 47.5743 30.7443C47.5728 30.7417 47.5715 30.739 47.5701 30.7362C47.5687 30.7335 47.5674 30.7307 47.5659 30.7281C47.3848 30.4163 46.9837 30.0332 45.476 29.839C44.4684 29.7092 43.2701 29.7186 42.1018 29.8653C36.737 30.5396 32.4441 33.7885 30.8101 39.5546C30.785 39.6433 30.7725 39.7341 30.77 39.825C30.4232 40.1603 30.1218 40.5099 29.8608 40.8658V35.2315C36.3303 30.0806 34.82 22.1034 30.0927 15.6384C29.846 15.3009 29.442 15.0996 29.0121 15.0996C28.5821 15.0996 28.1782 15.3009 27.9316 15.6384C23.2078 22.0988 21.6852 30.0721 28.1617 35.2301V40.7783C27.8946 40.4369 27.5855 40.1048 27.2293 39.7898C27.2247 39.7107 27.2119 39.6319 27.19 39.5546C26.3094 36.4468 24.6654 34.0086 22.3039 32.3073C19.4073 30.2207 15.5213 29.4524 12.5242 29.8388C11.0285 30.0314 10.622 30.4099 10.4388 30.7203L10.4361 30.7248L10.4342 30.7278C9.38152 32.5412 12.6994 41.2602 23.5467 41.2602C24.0504 41.2602 25.6504 41.211 26.1376 41.093C27.6761 42.4767 28.0595 44.2964 28.1466 45.3168C22.1805 45.463 16.453 47.1387 11.9038 50.077H5.34452V47.1697C5.34452 46.7 4.96412 46.3195 4.49491 46.3195C4.0257 46.3195 3.6453 46.7 3.6453 47.1697V50.077H2.90478C1.30344 50.077 0.000476802 51.3808 0.000476802 52.9833C0.000476802 54.5859 1.30332 55.8897 2.90478 55.8897H55.0953C56.6967 55.8897 57.9996 54.5859 57.9996 52.9833C57.9996 51.3811 56.6966 50.0774 55.0953 50.0774H54.3547ZM33.7802 39.5483C38.3424 36.0735 43.5645 33.5401 45.9034 32.4854C44.7547 36.2925 40.5804 39.7825 33.7802 39.5483ZM33.2797 37.797C35.3824 33.4272 39.7305 31.4001 44.0915 31.4427C41.5011 32.6624 37.2378 34.8655 33.2797 37.797ZM24.8142 37.9958C20.6592 35.1078 16.2498 32.7389 13.6984 31.4467C18.1557 31.3237 22.7003 33.3975 24.8142 37.9958ZM12.1189 32.5566C14.4319 33.6997 19.4441 36.3034 24.0731 39.5516C17.4239 39.7319 13.3059 36.3254 12.1189 32.5566ZM29.8608 32.9524V18.3678C32.8211 23.3103 33.8869 28.8641 29.8608 32.9524ZM28.1616 18.3708V32.9504C24.1372 28.862 25.2046 23.3094 28.1616 18.3708ZM42.6564 50.0774H15.3436C23.6107 45.9856 34.3751 45.9785 42.6564 50.0774ZM2.90478 54.1897H55.0953C55.7597 54.1897 56.3004 53.6487 56.3004 52.9837C56.3004 52.3187 55.7598 51.7778 55.0953 51.7778H2.90478C2.24027 51.7778 1.6997 52.3186 1.6997 52.9837C1.6997 53.6488 2.24027 54.1897 2.90478 54.1897Z" fill="url(#paint0_linear)"/>
<defs>
<linearGradient id="paint0_linear" x1="87.9634" y1="50.1238" x2="46.5552" y2="-39.0939" gradientUnits="userSpaceOnUse">
<stop stop-color="#7FB800"/>
<stop offset="1" stop-color="#0F9B0F"/>
</linearGradient>
</defs>
</svg>
