<svg width="57" height="56" viewBox="0 0 57 56" fill="none" xmlns="http://www.w3.org/2000/svg">
<path d="M21.9732 5.13991C22.4855 5.13991 22.9008 4.72467 22.9008 4.21226C22.9008 3.69985 22.4856 3.28461 21.9732 3.28461C21.4608 3.28461 21.0455 3.69985 21.0455 4.21226C21.0455 4.72467 21.4609 5.13991 21.9732 5.13991Z" fill="url(#paint0_linear)"/>
<path d="M16.4189 9.8384H27.5275C27.986 9.8384 28.3576 9.46665 28.3576 9.00825C28.3576 8.54974 27.986 8.1781 27.5275 8.1781H16.4189C15.9604 8.1781 15.5887 8.54974 15.5887 9.00825C15.5887 9.46665 15.9605 9.8384 16.4189 9.8384Z" fill="url(#paint1_linear)"/>
<path d="M12.931 23.4408L17.5886 21.0521C17.9966 20.843 18.1577 20.3426 17.9485 19.9346C17.7394 19.5266 17.239 19.3654 16.831 19.5748L13.3822 21.3433V20.3135C13.3822 19.855 13.0106 19.4834 12.5521 19.4834C12.0936 19.4834 11.7219 19.855 11.7219 20.3135V22.702C11.722 23.3265 12.3844 23.7209 12.931 23.4408Z" fill="url(#paint2_linear)"/>
<path d="M21.5546 22.3379H28.8844C29.343 22.3379 29.7146 21.9663 29.7146 21.5078C29.7146 21.0492 29.343 20.6776 28.8844 20.6776H21.5546C21.0961 20.6776 20.7245 21.0492 20.7245 21.5078C20.7245 21.9663 21.0962 22.3379 21.5546 22.3379Z" fill="url(#paint3_linear)"/>
<path d="M12.931 31.0324L17.5886 28.6439C17.9966 28.4346 18.1577 27.9343 17.9485 27.5263C17.7394 27.1184 17.239 26.9571 16.831 27.1664L13.3822 28.9351V27.9052C13.3822 27.4467 13.0106 27.075 12.5521 27.075C12.0936 27.075 11.7219 27.4467 11.7219 27.9052V30.2937C11.722 30.9151 12.3812 31.3144 12.931 31.0324Z" fill="url(#paint4_linear)"/>
<path d="M21.5546 29.9296H28.8844C29.343 29.9296 29.7146 29.5579 29.7146 29.0995C29.7146 28.641 29.343 28.2693 28.8844 28.2693H21.5546C21.0961 28.2693 20.7245 28.641 20.7245 29.0995C20.7245 29.5579 21.0962 29.9296 21.5546 29.9296Z" fill="url(#paint5_linear)"/>
<path d="M12.5522 38.7155C12.9109 38.7155 12.6647 38.7241 17.5886 36.2354C17.9966 36.0262 18.1577 35.5259 17.9485 35.1179C17.7394 34.71 17.239 34.5488 16.831 34.758L13.3822 36.5266V35.4967C13.3822 35.0383 13.0106 34.6665 12.5521 34.6665C12.0936 34.6665 11.7219 35.0383 11.7219 35.4967V37.8853C11.722 38.3428 12.0933 38.7155 12.5522 38.7155Z" fill="url(#paint6_linear)"/>
<path fill-rule="evenodd" clip-rule="evenodd" d="M33.035 54.7024H7.56277C3.39265 54.7024 0 51.3096 0 47.1395V13.3802C0 9.21002 3.39265 5.81737 7.56277 5.81737H9.771C10.2885 4.48654 11.5824 3.5404 13.0939 3.5404H17.5256C18.0034 1.51577 19.8256 0.0238037 21.9732 0.0238037C24.1209 0.0238037 25.9431 1.51577 26.421 3.5404H30.8526C32.364 3.5404 33.658 4.48654 34.1755 5.81737H36.3835C40.5536 5.81737 43.9464 9.21002 43.9464 13.3802V24.6649C45.7306 23.9345 47.69 23.914 49.3671 24.7033C49.5419 24.7855 49.6825 24.9262 49.7647 25.101C50.5833 26.8403 50.5259 28.9641 49.6533 30.8545C55.693 32.8452 58.2016 40.2697 55.7069 46.8674C55.5448 47.2962 55.0657 47.5125 54.6369 47.3503C54.208 47.1882 53.9919 46.7091 54.154 46.2802C57.1437 38.3728 52.0942 29.6605 42.8917 32.585C42.4115 32.7377 42.0823 32.8683 41.8373 32.9655C41.3751 33.1489 41.2127 33.2133 40.902 33.0821C28.1452 27.6943 22.4349 43.8435 32.804 52.4764C33.1374 52.7537 33.3974 52.9607 33.7288 53.1775C33.7154 53.1732 36.9848 55.4765 40.6198 53.5537C40.6521 53.5367 40.6836 53.5197 40.7151 53.5026C41.0342 53.3286 41.416 53.3286 41.7356 53.503C44.1665 54.8274 47.0763 54.4815 49.1794 52.8519C50.6029 51.749 51.7978 50.4724 52.7309 49.0574C52.9833 48.6747 53.4983 48.5691 53.881 48.8215C54.2637 49.0739 54.3694 49.5889 54.1169 49.9716C53.0832 51.5389 51.7641 52.9496 50.1964 54.1644C47.5957 56.1793 44.0951 56.542 41.2249 55.1093C38.6496 56.3952 35.5476 56.2432 33.035 54.7024ZM41.2252 31.4197C41.402 31.3491 41.6567 31.2537 41.7725 31.2118C41.3477 27.6063 37.3617 24.8163 34.0684 26.0865C33.5229 27.4993 33.7428 29.1149 34.4493 30.4496C36.7319 30.1039 39.0555 30.5511 41.2252 31.4197ZM48.3816 26.0866C48.8976 27.4227 48.7538 29.0342 47.9986 30.4577C46.539 30.2389 44.9919 30.3279 43.3813 30.7229C43.2148 29.6872 42.8047 28.6685 42.2676 27.8258C44.0224 25.9206 46.5275 25.3712 48.3816 26.0866ZM42.2861 25.593V13.3802C42.2861 10.1255 39.6381 7.47767 36.3836 7.47767H34.4172V10.7796C34.4172 10.9877 34.3983 11.1914 34.3639 11.3899H35.9684C37.3339 11.3899 38.4449 12.501 38.4449 13.8665V24.6416C39.48 25.0553 40.4394 25.7038 41.225 26.5107C41.5529 26.1738 41.9606 25.8267 42.2861 25.593ZM13.0938 5.20082H18.24C18.6794 5.20082 19.0428 4.85829 19.0687 4.41958C19.1593 2.88567 20.4351 1.68421 21.9731 1.68421C23.5111 1.68421 24.787 2.88578 24.8777 4.41969C24.9036 4.85829 25.267 5.20082 25.7064 5.20082H30.8525C31.9047 5.20082 32.7568 6.0614 32.7568 7.10515C32.7539 7.94744 32.7581 8.61706 32.7614 9.1563C32.7732 11.0558 32.7749 11.3377 32.4251 11.8518C32.0736 12.3656 31.4753 12.684 30.8525 12.684C25.1994 12.6829 21.3316 12.6844 18.679 12.6854C13.0335 12.6875 12.8914 12.6876 12.7568 12.6559C12.7435 12.6527 12.7302 12.6493 12.7117 12.6455C11.8079 12.4531 11.1896 11.6675 11.1896 10.7798C11.1909 9.4221 11.1899 8.55999 11.1893 8.00454C11.1884 7.10463 11.1883 7.00961 11.1998 6.91603C11.2012 6.90498 11.2027 6.89395 11.2044 6.88162C11.2056 6.87293 11.2069 6.86359 11.2083 6.85315C11.3323 5.92195 12.1294 5.20082 13.0938 5.20082ZM7.56277 7.47767C4.30813 7.47767 1.6603 10.1256 1.6603 13.3802V47.1395C1.6603 50.3941 4.30813 53.0421 7.56277 53.0421H30.9345C29.6311 51.8252 28.598 50.5027 27.8095 49.1297H7.97801C6.61254 49.1297 5.5015 48.0188 5.5015 46.6531V27.1595C5.5015 26.7009 5.87314 26.3293 6.33165 26.3293C6.79017 26.3293 7.1618 26.7009 7.1618 27.1595V46.6529C7.1618 47.103 7.52802 47.4692 7.97801 47.4692H26.9823C25.7235 44.5095 25.3719 41.1028 26.298 37.9412V37.9411C26.3364 37.8101 26.4144 37.5623 26.4281 37.5211H21.5547C21.0962 37.5211 20.7245 37.1494 20.7245 36.691C20.7245 36.2325 21.0962 35.8608 21.5547 35.8608H27.1142C28.2916 33.5339 30.222 31.7145 32.7933 30.8487C31.8792 28.852 31.9099 26.749 32.6852 25.1008C32.8235 24.8068 33.0466 24.713 33.3042 24.6048L33.3092 24.6027C34.3279 24.1741 35.5202 24.0026 36.7845 24.1902V13.8665C36.7845 13.4164 36.4183 13.0502 35.9683 13.0502H33.6007C33.119 13.6355 32.4713 14.0445 31.7467 14.2305C31.6897 14.2447 31.6469 14.2572 31.6037 14.2683C31.1496 14.385 30.6544 14.3424 13.0938 14.3442C12.03 14.3442 11.0243 13.8748 10.3456 13.0502H7.97801C7.52802 13.0502 7.1618 13.4164 7.1618 13.8665V23.8387C7.1618 24.2973 6.79017 24.6689 6.33165 24.6689C5.87314 24.6689 5.5015 24.2973 5.5015 23.8387V13.8665C5.5015 12.501 6.61243 11.3899 7.97801 11.3899H9.58253C9.54811 11.1915 9.52919 10.9877 9.52919 10.7796V7.47767H7.56277Z" fill="url(#paint7_linear)"/>
<defs>
<linearGradient id="paint0_linear" x1="23.8593" y1="4.94813" x2="22.4475" y2="2.02274" gradientUnits="userSpaceOnUse">
<stop stop-color="#7FB800"/>
<stop offset="1" stop-color="#0F9B0F"/>
</linearGradient>
<linearGradient id="paint1_linear" x1="34.9541" y1="9.66678" x2="34.7524" y2="6.4518" gradientUnits="userSpaceOnUse">
<stop stop-color="#7FB800"/>
<stop offset="1" stop-color="#0F9B0F"/>
</linearGradient>
<linearGradient id="paint2_linear" x1="21.3042" y1="23.1139" x2="19.0819" y2="15.9291" gradientUnits="userSpaceOnUse">
<stop stop-color="#7FB800"/>
<stop offset="1" stop-color="#0F9B0F"/>
</linearGradient>
<linearGradient id="paint3_linear" x1="34.3589" y1="22.1663" x2="34.0735" y2="18.9641" gradientUnits="userSpaceOnUse">
<stop stop-color="#7FB800"/>
<stop offset="1" stop-color="#0F9B0F"/>
</linearGradient>
<linearGradient id="paint4_linear" x1="21.3042" y1="30.7059" x2="19.0816" y2="23.5207" gradientUnits="userSpaceOnUse">
<stop stop-color="#7FB800"/>
<stop offset="1" stop-color="#0F9B0F"/>
</linearGradient>
<linearGradient id="paint5_linear" x1="34.3589" y1="29.758" x2="34.0735" y2="26.5558" gradientUnits="userSpaceOnUse">
<stop stop-color="#7FB800"/>
<stop offset="1" stop-color="#0F9B0F"/>
</linearGradient>
<linearGradient id="paint6_linear" x1="21.3042" y1="38.2969" x2="19.0823" y2="31.1127" gradientUnits="userSpaceOnUse">
<stop stop-color="#7FB800"/>
<stop offset="1" stop-color="#0F9B0F"/>
</linearGradient>
<linearGradient id="paint7_linear" x1="85.9371" y1="50.1925" x2="43.6956" y2="-38.4497" gradientUnits="userSpaceOnUse">
<stop stop-color="#7FB800"/>
<stop offset="1" stop-color="#0F9B0F"/>
</linearGradient>
</defs>
</svg>
