<svg width="63" height="55" fill="none" xmlns="http://www.w3.org/2000/svg"><path fill-rule="evenodd" clip-rule="evenodd" d="M5 44.5a5.5 5.5 0 015.5-5.5 5.506 5.506 0 015.5 5.5 5.5 5.5 0 01-11 0zm2.2 0a3.3 3.3 0 106.6 0 3.3 3.3 0 00-6.6 0z" fill="#fff"/><path d="M18 28h3c.552 0 1-.672 1-1.5s-.448-1.5-1-1.5h-3c-.552 0-1 .672-1 1.5s.448 1.5 1 1.5zm0 2h3a1 1 0 000-2h-3a1 1 0 100 2zm0 4h3c.552 0 1-.672 1-1.5s-.448-1.5-1-1.5h-3c-.552 0-1 .672-1 1.5s.448 1.5 1 1.5z" fill="#fff"/><path fill-rule="evenodd" clip-rule="evenodd" d="M53.55 27.844v2.173C59.113 31.464 63 36.518 63 42.306c0 7.01-5.64 12.693-12.599 12.694-6.958 0-12.6-5.682-12.601-12.691h-2.1v3.173c0 .584-.47 1.057-1.05 1.057H25.2c-.58 0-1.05-.473-1.05-1.057v-3.173h-3.361a10.617 10.617 0 01-2.784 9.5 2.07 2.07 0 01-.173.175 10.42 10.42 0 01-14.665 0 2.082 2.082 0 01-.173-.175c-3.992-4.103-3.992-10.669 0-14.772.025-.032.13-.139.156-.16V26.443c0-.423.25-.806.636-.972l14.7-6.347c.131-.056.272-.085.414-.085h2.258l1.134-12.875a3.172 3.172 0 01-2.097-2.993C20.197 1.418 21.608-.001 23.348 0H52.5c.58 0 1.05.474 1.05 1.058v24.628c1.636.313 3.217.87 4.69 1.651.513.273.71.913.438 1.43a1.046 1.046 0 01-1.419.44 14.558 14.558 0 00-3.709-1.363zM23.348 2.115a1.044 1.044 0 00-.94.585c-.072.147-.11.309-.11.473 0 .584.47 1.058 1.05 1.058H51.45V2.115H23.348zM51.45 6.346V19.04h-2.1V6.346h2.1zm-4.2 12.693V6.346H28.212l-.84 12.693H47.25zM26.108 6.346l-.84 12.693h-2.002l1.118-12.693h1.724zM7.35 27.5h-2.1v2.116h2.1V27.5zm-2.1 4.231H8.4c.58 0 1.05-.473 1.05-1.057v-4.231c0-.367-.19-.708-.5-.9l10.166-4.389h5.034v14.808H16.8v.006a10.407 10.407 0 00-11.55-.698v-3.54zm11.88 17.88a8.45 8.45 0 001.702-4.133 1.053 1.053 0 01-.98-.987 1.054 1.054 0 01.98-1.121 8.45 8.45 0 00-1.703-4.133 1.043 1.043 0 01-1.382 0 1.062 1.062 0 01-.098-1.491 8.324 8.324 0 00-4.102-1.716 1.054 1.054 0 01-.98.988 1.051 1.051 0 01-1.114-.988 8.324 8.324 0 00-4.102 1.716c.346.398.346.994 0 1.392a1.043 1.043 0 01-1.48.099 8.45 8.45 0 00-1.703 4.133c.527.033.947.456.98.987a1.054 1.054 0 01-.98 1.121 8.45 8.45 0 001.703 4.133 1.043 1.043 0 011.382 0c.435.385.48 1.052.098 1.49a8.323 8.323 0 004.102 1.717c.034-.531.454-.954.98-.988a1.051 1.051 0 011.114.988 8.323 8.323 0 004.102-1.716 1.062 1.062 0 010-1.392 1.043 1.043 0 011.48-.099zm16.47-5.187h-7.35v-2.115h7.35v2.115zm-13.48-4.23h13.611c.089-.714.222-1.42.4-2.116H18.895c.489.654.9 1.364 1.227 2.115zm14.707-4.232H26.25V21.154h25.2v4.265c-.35-.022-.7-.034-1.05-.034-6.843.008-13 4.19-15.573 10.577zm1.024 4.231h2.125c.12-.72.303-1.427.545-2.115h-2.209c-.205.692-.36 1.4-.461 2.115zm1.27-4.23c2.436-5.165 7.603-8.457 13.279-8.463.35 0 .7.015 1.05.04v2.12a12.58 12.58 0 00-1.05-.044 12.591 12.591 0 00-10.909 6.346h-2.37zm23.726 7.403h-.997c-.58 0-1.05-.473-1.05-1.057 0-.585.47-1.058 1.05-1.058h.997a10.57 10.57 0 00-2.32-5.633l-.702.707-.017.017c-.415.408-1.08.4-1.485-.017a1.063 1.063 0 01.017-1.496l.701-.706a10.411 10.411 0 00-5.591-2.339v1.005c0 .584-.47 1.058-1.05 1.058-.58 0-1.05-.474-1.05-1.058v-1.005a10.411 10.411 0 00-5.591 2.339l.701.706a1.063 1.063 0 010 1.48 1.045 1.045 0 01-1.485.016l-.701-.707a10.57 10.57 0 00-2.322 5.633h.998c.58 0 1.05.473 1.05 1.058 0 .584-.47 1.057-1.05 1.057h-.998A10.57 10.57 0 0042.275 49l.701-.707a1.044 1.044 0 011.468 0c.415.408.423 1.078.017 1.496l-.701.706a10.412 10.412 0 005.591 2.339v-1.005c0-.584.47-1.058 1.05-1.058.58 0 1.05.474 1.05 1.058v1.005a10.412 10.412 0 005.591-2.339l-.701-.706a1.063 1.063 0 010-1.48 1.044 1.044 0 011.485-.016l.701.706a10.57 10.57 0 002.321-5.632z" fill="#fff"/><path fill-rule="evenodd" clip-rule="evenodd" d="M44 42.5a6.5 6.5 0 016.5-6.5 6.508 6.508 0 016.5 6.5 6.5 6.5 0 11-13 0zm2.167 0a4.333 4.333 0 108.666 0 4.333 4.333 0 00-8.666 0z" fill="#fff"/><ellipse cx="50" cy="42.5" rx="1" ry="1.5" fill="#fff"/><ellipse cx="11" cy="44.5" rx="1" ry="1.5" fill="#fff"/></svg>