<svg width="18" height="17" fill="none" xmlns="http://www.w3.org/2000/svg"><path d="M9 .375c-4.992 0-9 3.305-9 7.313 0 1.687.668 3.234 1.828 4.464C1.336 13.523.246 14.72.211 14.72c-.246.246-.281.597-.176.914.14.316.457.492.809.492 2.144 0 3.867-.879 4.886-1.617C6.75 14.824 7.84 15 9 15c4.957 0 9-3.27 9-7.313C18 3.68 13.957.375 9 .375zm0 12.938a9.17 9.17 0 01-2.777-.422l-.809-.246-.668.492a7.841 7.841 0 01-2.039 1.02c.281-.423.527-.915.703-1.407l.387-.984-.738-.774c-.633-.668-1.372-1.793-1.372-3.305 0-3.093 3.27-5.625 7.313-5.625 4.008 0 7.313 2.532 7.313 5.626 0 3.128-3.305 5.625-7.313 5.625z" fill="#FAB522"/></svg>