<svg width="126" height="126" fill="none" xmlns="http://www.w3.org/2000/svg"><path d="M31.496 7.874V0H3.937A3.937 3.937 0 000 3.937v27.56h7.874V13.424L44.449 50 50 44.449 13.425 7.874h18.071zM122.063 0h-27.56v7.874h18.072L76 44.449 81.551 50l36.575-36.575v18.071H126V3.937A3.937 3.937 0 00122.063 0zm-3.937 112.575L81.551 76 76 81.551l36.575 36.575H94.504V126h27.559a3.937 3.937 0 003.937-3.937v-27.56h-7.874v18.072zM44.449 76L7.874 112.585V94.529H0v27.537A3.935 3.935 0 003.937 126h27.56v-7.868H13.424L50 81.586 44.449 76z" fill="#fff"/></svg>