<svg width="60" height="60" fill="none" xmlns="http://www.w3.org/2000/svg"><path fill-rule="evenodd" clip-rule="evenodd" d="M60 24.494a2.918 2.918 0 01-2.916 2.913h-.875v11.836h.874A2.918 2.918 0 0160 42.155v9.109a2.918 2.918 0 01-2.916 2.912h-.874v2.562A3.268 3.268 0 0152.942 60h-8.42a3.268 3.268 0 01-3.267-3.262v-2.562h-3.774v2.562A3.268 3.268 0 0134.214 60h-8.42a3.268 3.268 0 01-3.267-3.262v-2.562h-3.774v2.562A3.268 3.268 0 0115.486 60h-8.42A3.268 3.268 0 013.8 56.738v-2.562h-.884A2.918 2.918 0 010 51.264v-9.109a2.918 2.918 0 012.916-2.912H3.8V35.34a.88.88 0 011.76 0v21.396c0 .83.676 1.505 1.506 1.505h8.42c.831 0 1.507-.675 1.507-1.505V10.023a.958.958 0 00-.174-.551l-5.304-7.59a.291.291 0 00-.478 0l-5.304 7.59a.957.957 0 00-.173.55v21.209a.88.88 0 01-1.76 0v-3.824h-.884A2.918 2.918 0 010 24.494v-9.108a2.918 2.918 0 012.916-2.913H3.8v-2.45c0-.56.17-1.098.49-1.557L9.594.876a2.054 2.054 0 013.365 0l5.304 7.59c.32.459.49.997.49 1.557v2.45h3.775v-2.45c0-.56.17-1.098.49-1.557l5.304-7.59a2.054 2.054 0 013.365 0l5.304 7.59c.32.459.49.997.49 1.557v2.45h3.775v-2.45c0-.56.17-1.098.49-1.557L47.05.876a2.054 2.054 0 013.365 0l1.58 2.26a.88.88 0 01-1.444 1.006l-1.58-2.26a.291.291 0 00-.478 0l-5.303 7.59a.957.957 0 00-.174.55v46.716c0 .83.676 1.504 1.507 1.504h8.42c.83 0 1.506-.675 1.506-1.504V10.023a.958.958 0 00-.174-.551L52.9 7.502a.88.88 0 011.443-1.006l1.376 1.97c.32.459.49.997.49 1.557v2.45h.875A2.918 2.918 0 0160 15.386v9.108zm-58.24 0c0 .637.519 1.155 1.156 1.155H3.8V14.23h-.884c-.637 0-1.156.518-1.156 1.155v9.108zM2.916 52.42a1.157 1.157 0 01-1.156-1.155v-9.109c0-.636.519-1.154 1.156-1.154H3.8v11.417h-.884zm38.34-25.012H37.48v11.836h3.775V27.407zm0-13.176V25.65H37.48V14.23h3.775zM22.528 27.407h-3.775v11.836h3.775V27.407zm0-13.176v11.418h-3.775V14.23h3.775zm-3.775 26.77v11.418h3.775V41h-3.775zM35.72 56.738c0 .83-.676 1.504-1.507 1.504h-8.42c-.83 0-1.506-.675-1.506-1.504V10.023c0-.198.06-.389.174-.551l5.303-7.59a.291.291 0 01.478 0l5.304 7.59a.958.958 0 01.174.55v46.716zM37.48 41v11.418h3.775V41H37.48zm19.603-26.77c.637 0 1.156.518 1.156 1.155v9.108c0 .637-.519 1.155-1.156 1.155h-.875V14.231h.875zm1.156 27.925c0-.637-.519-1.155-1.156-1.155h-.875v11.418h.875c.637 0 1.156-.518 1.156-1.155v-9.108z" fill="#fff"/><path fill-rule="evenodd" clip-rule="evenodd" d="M47 46.5c0-1.378 1.121-2.5 2.5-2.5 1.378 0 2.5 1.122 2.5 2.5 0 1.379-1.121 2.5-2.5 2.5a2.503 2.503 0 01-2.5-2.5zm1.434 0a1.068 1.068 0 002.132 0 1.067 1.067 0 00-2.132 0zM47 20.5c0-1.378 1.121-2.5 2.5-2.5 1.378 0 2.5 1.122 2.5 2.5S50.879 23 49.5 23a2.503 2.503 0 01-2.5-2.5zm1.434 0a1.068 1.068 0 002.132 0 1.067 1.067 0 00-2.132 0zM28 46.5c0-1.378 1.122-2.5 2.5-2.5s2.5 1.122 2.5 2.5c0 1.379-1.122 2.5-2.5 2.5a2.503 2.503 0 01-2.5-2.5zm1.434 0a1.067 1.067 0 002.132 0 1.067 1.067 0 00-2.132 0zM28 20.5c0-1.378 1.122-2.5 2.5-2.5s2.5 1.122 2.5 2.5-1.122 2.5-2.5 2.5a2.503 2.503 0 01-2.5-2.5zm1.434 0a1.067 1.067 0 002.132 0 1.067 1.067 0 00-2.132 0zM13 46.5c0 1.379-1.121 2.5-2.5 2.5A2.503 2.503 0 018 46.5c0-1.378 1.121-2.5 2.5-2.5s2.5 1.122 2.5 2.5zm-1.434 0a1.068 1.068 0 00-2.132 0 1.067 1.067 0 002.132 0zM13 20.5c0 1.378-1.121 2.5-2.5 2.5A2.503 2.503 0 018 20.5c0-1.378 1.121-2.5 2.5-2.5s2.5 1.122 2.5 2.5zm-1.434 0a1.068 1.068 0 00-2.132 0 1.067 1.067 0 002.132 0z" fill="#fff"/></svg>