<svg width="18" height="18" fill="none" xmlns="http://www.w3.org/2000/svg"><path d="M4.156 18H.523V6.32h3.633V18zM2.36 4.719a2.028 2.028 0 01-1.484-.625A2.028 2.028 0 01.25 2.609c0-.573.208-1.067.625-1.484A2.028 2.028 0 012.359.5c.365 0 .704.091 1.016.273.339.183.599.443.781.782.209.312.313.664.313 1.054 0 .365-.104.717-.313 1.055a2.243 2.243 0 01-.781.781 1.98 1.98 0 01-1.016.274zM17.75 18h-3.633v-5.703c0-.443-.013-.794-.039-1.055a4.635 4.635 0 00-.195-.937c-.104-.365-.3-.638-.586-.82-.26-.183-.612-.274-1.055-.274-.86 0-1.445.273-1.758.82-.286.547-.43 1.276-.43 2.188V18H6.423V6.32h3.516v1.602h.039c.26-.521.69-.964 1.289-1.328.599-.39 1.315-.586 2.148-.586.886 0 1.615.143 2.188.43.599.26 1.041.664 1.328 1.21.312.521.52 1.094.625 1.72.13.624.195 1.366.195 2.226V18z" fill="#7FB800"/></svg>