<svg width="60" height="60" fill="none" xmlns="http://www.w3.org/2000/svg"><path fill-rule="evenodd" clip-rule="evenodd" d="M58.416 46.03a5.452 5.452 0 00-.845-.691.88.88 0 00-.971 1.469 3.672 3.672 0 011.64 3.046c0 .974-.38 1.89-1.07 2.579a3.647 3.647 0 01-2.752 1.064.88.88 0 00-.921.92 3.656 3.656 0 01-1.064 2.754 3.638 3.638 0 01-5.158 0 3.623 3.623 0 01-1.069-2.58c0-.974.38-1.89 1.069-2.579.056-.057.117-.114.178-.172.462-.44.976-.928.366-1.538l-3.48-3.48 2.484-2.483 3.48 3.48a.898.898 0 001.334-.105 3.604 3.604 0 011.85-1.337.88.88 0 00-.532-1.68 5.426 5.426 0 00-2.068 1.216L47.776 42.8s-.818-2.055-.954-3.022c-.294-2.084-.322-4.156-.3-6.247.015-1.54.03-3.085-.117-4.62-.753-7.785-4.7-14.616-7.879-18.976-2.82-3.87-6.362-7.296-6.698-7.62l-.025-.025C29.474-.038 25.73-.614 21.26.668c-4.29 1.23-8.79 4.044-12.668 7.923C4.71 12.47 1.898 16.969.668 21.259c-1.282 4.47-.706 8.215 1.623 10.544l.023.024c.313.324 3.72 3.855 7.622 6.7 3.573 2.605 7.49 4.797 11.676 6.246a33.83 33.83 0 003.736 1.062c2.038.452 4.112.687 6.205.694.501 0 1.002-.001 1.502-.003 2.245-.01 4.486-.02 6.724.296.821.116 2.36.707 2.833.89l.142.053 3.159 3.122a5.37 5.37 0 00-1.468 3.704c0 1.445.563 2.803 1.584 3.825A5.373 5.373 0 0049.854 60a5.374 5.374 0 003.824-1.584 5.422 5.422 0 001.547-3.191 5.423 5.423 0 003.19-1.547A5.374 5.374 0 0060 49.854a5.373 5.373 0 00-1.584-3.825zM2.36 21.743c1.15-4.007 3.805-8.237 7.476-11.908 3.671-3.671 7.9-6.326 11.908-7.476 1.4-.4 2.706-.6 3.89-.6 2.056 0 3.747.6 4.924 1.776 1.856 1.856 2.274 4.987 1.176 8.814-1.15 4.008-3.804 8.237-7.475 11.909-3.672 3.67-7.9 6.326-11.909 7.475-3.828 1.098-6.957.68-8.813-1.176-1.856-1.856-2.274-4.986-1.177-8.814zm35.93 23.14c.579.05 1.156.113 1.734.194 1.031.145 1.944.472 2.767.803l3.09-3.09c-.331-.822-.658-1.736-.803-2.766-.28-1.99-.277-3.985-.273-5.98.003-1.657.006-3.313-.153-4.963-.713-7.375-4.485-13.9-7.523-18.074a54.39 54.39 0 00-3.11-3.881c.199 1.698.006 3.625-.592 5.709-1.23 4.29-4.044 8.789-7.923 12.668-3.88 3.879-8.378 6.692-12.668 7.923-1.558.447-3.027.668-4.379.668-.458 0-.901-.026-1.331-.077a54.445 54.445 0 003.882 3.11c3.943 2.87 8.076 5.125 12.783 6.492 3.197.928 6.193 1.178 9.53 1.13 1.669-.024 3.32-.005 4.97.134z" fill="#fff"/><path d="M13.355 29.704c3.285-1.103 6.788-3.406 9.866-6.483 3.077-3.078 5.38-6.581 6.483-9.866 1.174-3.491.866-6.368-.865-8.1-3.462-3.46-11.353-.993-17.965 5.619a32.064 32.064 0 00-2.806 3.2.88.88 0 001.4 1.07 30.255 30.255 0 012.651-3.025c5.717-5.717 12.804-8.29 15.475-5.618 1.215 1.216 1.377 3.51.441 6.293-1.018 3.032-3.17 6.292-6.06 9.181-2.888 2.89-6.149 5.041-9.18 6.06-2.784.935-5.077.774-6.294-.442-1.653-1.653-1.338-5.162.822-9.155a.88.88 0 10-1.55-.838c-2.583 4.777-2.776 8.979-.517 11.238 1.04 1.04 2.494 1.567 4.246 1.567 1.163 0 2.46-.232 3.853-.7z" fill="#fff"/><path fill-rule="evenodd" clip-rule="evenodd" d="M23.932 14.787c-1.41 1.538-3.058 2.389-4.395 2.389-.636 0-1.202-.192-1.64-.593-1.36-1.246-.815-3.898 1.267-6.168.91-.993 1.981-1.747 3.017-2.124 1.228-.446 2.3-.33 3.017.328 1.36 1.246.815 3.897-1.266 6.168zm-1.15-4.84c-.763.277-1.608.881-2.32 1.658-1.48 1.613-1.807 3.283-1.375 3.68.433.396 2.068-.075 3.547-1.689.713-.778 1.425-1.81 1.537-2.893.101-.976-.62-1.036-1.389-.757z" fill="#fff"/></svg>