<svg width="19" height="35" fill="none" xmlns="http://www.w3.org/2000/svg"><path d="M1.362.214A.814.814 0 00.243.232a.74.74 0 000 1.057l16.848 16.202-16.85 16.2a.74.74 0 00-.019 1.077.814.814 0 001.138 0l17.408-16.74a.74.74 0 000-1.075L1.362.213z" fill="url(#paint0_linear)"/><path d="M.793 35c-.437 0-.792-.34-.793-.76 0-.202.083-.397.233-.54l16.855-16.2L.233 1.3a.741.741 0 010-1.077.815.815 0 011.12 0l17.415 16.739a.74.74 0 010 1.076L1.353 34.776a.808.808 0 01-.56.224z" fill="url(#paint1_linear)"/><defs><linearGradient id="paint0_linear" x1="28.816" y1="31.382" x2="-4.97" y2="-6.622" gradientUnits="userSpaceOnUse"><stop stop-color="#7FB800"/><stop offset="1" stop-color="#0F9B0F"/></linearGradient><linearGradient id="paint1_linear" x1="28.816" y1="31.382" x2="-4.97" y2="-6.622" gradientUnits="userSpaceOnUse"><stop stop-color="#7FB800"/><stop offset="1" stop-color="#0F9B0F"/></linearGradient></defs></svg>