<svg width="68" height="52" fill="none" xmlns="http://www.w3.org/2000/svg"><path d="M52.623 19.994a1.36 1.36 0 01-.943-.38 1.283 1.283 0 01-.39-.917c0-.342.14-.675.39-.916a1.357 1.357 0 011.885 0c.249.24.391.574.391.916 0 .341-.142.675-.39.917-.248.24-.592.38-.943.38zM33.393 8.716a1.36 1.36 0 01-.942-.38 1.288 1.288 0 01-.39-.917c0-.342.142-.675.39-.916a1.357 1.357 0 011.885 0c.248.241.39.575.39.916 0 .341-.142.676-.39.917-.248.24-.592.38-.943.38z" fill="#7FB800"/><path fill-rule="evenodd" clip-rule="evenodd" d="M66.672 15.85h-2.826c-1.403 0-2.697-.721-3.462-1.93a17.937 17.937 0 00-6.099-5.894l1.613-6.078c.19-.715-.23-1.45-.939-1.642-4.377-1.184-8.913 1.167-10.584 5.31h-5.003c-.733 0-1.328.6-1.328 1.34 0 .74.595 1.341 1.328 1.341h5.95a1.33 1.33 0 001.28-.981c.797-2.89 3.49-4.765 6.35-4.628l-1.505 5.667a1.345 1.345 0 00.69 1.546 15.251 15.251 0 016.008 5.463c1.256 1.983 3.387 3.168 5.7 3.168h1.499v5.655l-4.769 2.74a1.338 1.338 0 00-.621.802c-1.609 5.77-6.442 10.073-12.314 10.96a1.334 1.334 0 00-1.116 1.123l-.848 5.58a1.35 1.35 0 00.299 1.068 6.572 6.572 0 011.39 2.86H42.46V35.711c0-.74-.595-1.34-1.328-1.34-.734 0-1.328.6-1.328 1.34v3.15H28.599a7.31 7.31 0 001.638-4.621c0-.74-.595-1.341-1.328-1.341-.733 0-1.328.6-1.328 1.34 0 2.549-2.054 4.622-4.58 4.622a1.33 1.33 0 00-1.294 1.041l-1.225 5.392c-.093.41.01.843.28 1.165a6.57 6.57 0 011.391 2.86h-4.906v-2.846c0-4.531-1.783-8.85-5.02-12.158A15.263 15.263 0 017.861 23.58c0-8.427 6.792-15.283 15.14-15.283h4.418c.733 0 1.328-.6 1.328-1.34 0-.74-.595-1.341-1.328-1.341h-4.417c-6.986 0-13.043 4.084-15.955 10.01a3.247 3.247 0 01-2.172.598 2.383 2.383 0 01-1.643-.844 2.428 2.428 0 01-.568-1.77 1.675 1.675 0 011.793-1.545 1.333 1.333 0 001.428-1.232 1.337 1.337 0 00-1.22-1.441C2.29 9.205.204 11 .015 13.397a5.107 5.107 0 001.196 3.723 5.014 5.014 0 003.456 1.777c.157.012.93.005 1.157-.021a18.08 18.08 0 00-.62 4.704c0 4.755 1.823 9.236 5.132 12.62 2.743 2.803 4.253 6.452 4.253 10.274v2.913c0 1.441 1.162 2.613 2.589 2.613h12.44c.734 0 1.329-.6 1.329-1.34a9.259 9.259 0 00-1.773-5.438l.559-3.679h10.069v7.844c0 1.441 1.16 2.613 2.588 2.613h12.438c.733 0 1.328-.6 1.328-1.34 0-1.96-.63-3.872-1.783-5.451.178-1.355.638-4.832.909-6.708a17.946 17.946 0 007.069-9.51l4.977-2.86c.415-.238.671-.683.671-1.165v-7.775c0-.74-.594-1.34-1.328-1.34zM24.85 49.32a9.267 9.267 0 00-1.637-4.047l.847-3.728h2.987l-.585 3.847c-.058.383.05.773.299 1.069a6.575 6.575 0 011.39 2.859H24.85zm23.54-4.096a9.266 9.266 0 011.672 4.096h3.299a6.572 6.572 0 00-1.39-2.86 1.35 1.35 0 01-.303-1.04c.022-.167.387-2.961.71-5.323a17.574 17.574 0 01-3.372 1.07l-.617 4.057z" fill="#7FB800"/></svg>