<svg width="11" height="11" fill="none" xmlns="http://www.w3.org/2000/svg"><path d="M5.004 10.406a.417.417 0 01-.306-.126.417.417 0 01-.126-.306v-3.51H1.116a.417.417 0 01-.306-.126.439.439 0 01-.126-.324v-.936c0-.132.042-.234.126-.306a.417.417 0 01.306-.126h3.456v-3.42c0-.132.042-.234.126-.306a.417.417 0 01.306-.126h1.044c.132 0 .234.042.306.126a.381.381 0 01.126.306v3.42h3.456c.132 0 .234.042.306.126a.381.381 0 01.126.306v.936c0 .132-.042.24-.126.324a.417.417 0 01-.306.126H6.48v3.51c0 .12-.042.222-.126.306a.381.381 0 01-.306.126H5.004z" fill="#ADB5BD"/></svg>