<svg width="19" height="35" fill="none" xmlns="http://www.w3.org/2000/svg"><path d="M17.638 34.786a.814.814 0 001.119-.018.74.74 0 000-1.057L1.909 17.509l16.85-16.2a.74.74 0 00.019-1.077.814.814 0 00-1.138 0L.232 16.972a.74.74 0 000 1.075l17.406 16.74z" fill="url(#paint0_linear)"/><path d="M18.207 0c.437 0 .792.34.793.76a.746.746 0 01-.233.54L1.912 17.5l16.855 16.2a.74.74 0 010 1.077.815.815 0 01-1.12 0L.232 18.038a.74.74 0 010-1.076L17.646.224A.808.808 0 0118.207 0z" fill="url(#paint1_linear)"/><defs><linearGradient id="paint0_linear" x1="-9.816" y1="3.618" x2="23.97" y2="41.622" gradientUnits="userSpaceOnUse"><stop stop-color="#7FB800"/><stop offset="1" stop-color="#0F9B0F"/></linearGradient><linearGradient id="paint1_linear" x1="-9.816" y1="3.618" x2="23.97" y2="41.622" gradientUnits="userSpaceOnUse"><stop stop-color="#7FB800"/><stop offset="1" stop-color="#0F9B0F"/></linearGradient></defs></svg>