<svg width="106" height="74" fill="none" xmlns="http://www.w3.org/2000/svg"><path fill-rule="evenodd" clip-rule="evenodd" d="M0 24.805C0 11.127 11.215 0 25 0s25 11.127 25 24.805C50 52.74 38.608 71.27 38.123 72.046L36.901 74H18.655l1.503-5.262c1.47-5.142 3.8-14.434 3.8-17.475 0-.743-.022-1.285-.052-1.679a24.937 24.937 0 01-16.745-7.402C2.543 37.516 0 31.345 0 24.804zm29.596 40.927h2.527c2.703-5.202 9.544-20.398 9.544-40.927 0-9.119-7.477-16.537-16.667-16.537-9.19 0-16.667 7.418-16.667 16.537 0 8.942 7.329 16.358 16.336 16.531l.182.005c3.655.02 5.437 1.882 6.288 3.445.957 1.756 1.153 3.859 1.153 6.477 0 3.298-1.5 9.8-2.696 14.469z" fill="url(#paint0_linear)"/><path fill-rule="evenodd" clip-rule="evenodd" d="M56 24.805C56 11.127 67.215 0 81 0s25 11.127 25 24.805c0 27.935-11.392 46.466-11.876 47.241L92.9 74H74.655l1.503-5.262c1.47-5.142 3.8-14.434 3.8-17.475 0-.743-.022-1.285-.052-1.679a24.937 24.937 0 01-16.745-7.402C58.543 37.516 56 31.345 56 24.804zm29.596 40.927h2.527c2.703-5.202 9.544-20.398 9.544-40.927 0-9.119-7.477-16.537-16.667-16.537-9.19 0-16.667 7.418-16.667 16.537 0 8.942 7.329 16.358 16.336 16.531l.182.005c3.655.02 5.436 1.882 6.288 3.445.957 1.756 1.153 3.859 1.153 6.477 0 3.298-1.5 9.8-2.696 14.469z" fill="url(#paint1_linear)"/><defs><linearGradient id="paint0_linear" x1="75.83" y1="66.351" x2="7.791" y2="-28.909" gradientUnits="userSpaceOnUse"><stop stop-color="#7FB800"/><stop offset="1" stop-color="#0F9B0F"/></linearGradient><linearGradient id="paint1_linear" x1="131.83" y1="66.351" x2="63.791" y2="-28.909" gradientUnits="userSpaceOnUse"><stop stop-color="#7FB800"/><stop offset="1" stop-color="#0F9B0F"/></linearGradient></defs></svg>