<svg width="60" height="60" fill="none" xmlns="http://www.w3.org/2000/svg"><path fill-rule="evenodd" clip-rule="evenodd" d="M57.026 29.4h.92c1.154-.007 2.117 1.005 2.05 2.161a22.117 22.117 0 01-6.454 14.392 22.072 22.072 0 01-8.884 5.436v2.505A6.112 6.112 0 0138.553 60H21.448a6.112 6.112 0 01-6.106-6.105v-2.51a22.12 22.12 0 01-10.399-7.111.879.879 0 111.363-1.11c3.948 4.846 9.645 7.522 15.826 7.523h15.736c5.48-.014 10.495-2.041 14.43-5.977a20.362 20.362 0 005.944-13.25c.01-.178-.101-.296-.295-.303H2.053c-.192.006-.305.125-.295.304.17 2.983.97 5.825 2.378 8.449a.879.879 0 11-1.55.83 21.924 21.924 0 01-2.582-9.179c-.066-1.156.89-2.168 2.05-2.162H9.13c-.173-.578-.382-1.107-.686-1.481-.393-.485-1.194-.852-2.042-1.242-1.216-.558-2.594-1.19-3.24-2.453-.648-1.262-.357-2.75-.1-4.063.18-.916.349-1.78.186-2.381-.2-.731-.844-1.497-1.469-2.238C.91 14.509.01 13.442 0 12.154c-.013-1.625 1.117-2.844 2.115-3.92.551-.593 1.072-1.154 1.277-1.653.243-.594.362-1.388.477-2.156.235-1.575.502-3.36 1.99-4.121 1.486-.762 3.09.063 4.507.791.69.356 1.405.723 2.028.872.525.125 1.284.03 2.088-.07 1.456-.183 3.106-.39 4.417.57 1.039.762 1.38 2.115 1.71 3.423.236.94.481 1.911.959 2.5.335.412.968.74 1.673 1.07.23-1.513.541-3.159 1.953-3.882 1.487-.763 3.091.062 4.507.79v.001c.691.355 1.405.723 2.029.871.524.126 1.283.03 2.086-.07h.002c1.456-.182 3.106-.389 4.417.571 1.039.762 1.38 2.115 1.71 3.423.236.94.48 1.91.959 2.5.392.482 1.193.85 2.04 1.239 1.216.558 2.594 1.19 3.241 2.454.647 1.262.357 2.75.1 4.062-.18.916-.348 1.781-.185 2.382.166.609.64 1.24 1.153 1.862a57.105 57.105 0 001.155-3.84.879.879 0 111.7.447 58.722 58.722 0 01-1.56 5.011c.453.654.785 1.346.798 2.118h5.903c-.089-.637-.115-1.288.048-1.887.282-1.039 1.001-1.893 1.697-2.719l.002-.001c.61-.725 1.241-1.474 1.246-2.056.007-.83-.761-1.659-1.505-2.46-.59-.636-1.2-1.294-1.506-2.04-.303-.737-.428-1.575-.55-2.385-.172-1.157-.335-2.25-.938-2.558-.603-.309-1.586.197-2.626.732-.728.375-1.48.762-2.255.947-.706.169-1.49.096-2.23.006a.879.879 0 11.21-1.745c.558.068 1.188.13 1.611.03.568-.136 1.224-.474 1.86-.8 1.324-.682 2.825-1.455 4.232-.734 1.405.72 1.655 2.39 1.875 3.863.106.707.215 1.437.437 1.977.185.45.662.965 1.168 1.51v.001c.932 1.004 1.988 2.142 1.975 3.671-.01 1.215-.85 2.211-1.661 3.174-.573.68-1.166 1.384-1.346 2.047-.103.378-.056.887.033 1.427zM14.982 18.907a61.396 61.396 0 005.563 10.491h1.54a7.506 7.506 0 013.528-9.183 4.823 4.823 0 01-.545-1.228c-.271-.996-.054-2.106.156-3.18.212-1.083.43-2.202.061-2.923-.37-.721-1.407-1.197-2.41-1.658-.993-.456-2.02-.928-2.672-1.729-.723-.89-1.016-2.054-1.3-3.178-.253-1.007-.515-2.047-1.043-2.434-.747-.547-1.974-.394-3.16-.245h-.001c-.924.116-1.88.235-2.713.036-.83-.198-1.64-.615-2.424-1.018l-.003-.001c-1.14-.587-2.215-1.14-2.9-.79-.683.35-.862 1.549-1.052 2.817v.001c-.13.872-.265 1.772-.59 2.562-.325.794-.98 1.5-1.613 2.182-.813.877-1.654 1.783-1.646 2.71.005.654.697 1.474 1.366 2.268.747.887 1.52 1.804 1.821 2.91.27.997.053 2.106-.157 3.178v.001c-.212 1.084-.43 2.204-.061 2.924.37.72 1.406 1.197 2.409 1.658.994.456 2.022.928 2.673 1.73.598.735.9 1.657 1.148 2.59h7.493a63.09 63.09 0 01-5.094-9.823 63.068 63.068 0 01-2.665-7.961.879.879 0 111.7-.446 61.281 61.281 0 002.591 7.739zm19.29 10.491H23.994a5.735 5.735 0 01-.604-2.563 5.749 5.749 0 015.742-5.742 5.749 5.749 0 015.742 5.742c0 .894-.208 1.77-.604 2.563zm1.91 0h4.23a5.73 5.73 0 00.604-2.563 5.749 5.749 0 00-6.924-5.62 7.482 7.482 0 012.09 8.183zm6.14 0a7.502 7.502 0 00.452-2.563c0-4.136-3.365-7.5-7.5-7.5-1.06 0-2.115.226-3.075.658a7.494 7.494 0 00-4.913-.427c-.221-.323-.425-.68-.522-1.04-.163-.6.006-1.465.185-2.38v-.002c.257-1.312.547-2.8-.1-4.062-.422-.824-1.155-1.379-1.952-1.82a86.1 86.1 0 00.04-.267c.177-1.188.373-2.503 1.06-2.854.683-.35 1.759.203 2.9.79.784.403 1.595.82 2.425 1.018.834.2 1.789.08 2.712-.036h.002c1.186-.148 2.413-.302 3.16.245.528.387.79 1.428 1.044 2.434.283 1.125.576 2.287 1.3 3.179.65.8 1.678 1.272 2.671 1.728 1.003.46 2.04.937 2.41 1.658.37.721.15 1.84-.061 2.923-.21 1.074-.427 2.184-.156 3.18.3 1.108 1.073 2.025 1.821 2.912.655.777 1.33 1.58 1.362 2.226h-5.265zm-3.77 28.843a4.353 4.353 0 004.348-4.347v-2.022a22.332 22.332 0 01-5.032.572H22.132c-1.714 0-3.4-.197-5.032-.575v2.025a4.353 4.353 0 004.348 4.347h17.105z" fill="#fff"/></svg>