<svg width="48" height="60" fill="none" xmlns="http://www.w3.org/2000/svg"><path fill-rule="evenodd" clip-rule="evenodd" d="M4.475 40.537c0 11.026 3.37 17.35 9.245 17.35 1.115 0 2.493-1.242 3.483-2.325C19.253 58.454 21.585 60 24 60c2.364 0 4.68-1.49 6.73-4.317.976 1.028 2.353 2.203 3.55 2.203 3.333 0 5.813-1.834 7.37-5.453 1.244-2.893 1.875-6.895 1.875-11.896 0-2.925 1.152-5.733 2.266-8.449 1.462-3.566 2.975-7.253 1.774-11.123-.914-2.945-3.444-5.064-6.769-5.668a8.147 8.147 0 00-3.637.184c-1.356-1.556-2.689-2.596-4.166-3.251-1.917-.852-4.035-.996-6.308-.433-.595-4.162-1.933-7.17-4.043-9.12C20.515.715 17.599-.176 13.974.03a.723.723 0 00-.69.731l.061 2.783a.724.724 0 00.672.7c2.547.207 4.256.86 5.225 1.997 1.388 1.627 1.33 4.243 1.03 7.543-1.411-.922-3.253-1.23-5.173-.82-1.819.386-3.307 1.367-4.005 2.592a8.205 8.205 0 00-3.89-.258c-3.325.604-5.855 2.723-6.769 5.668-1.2 3.87.312 7.557 1.774 11.123 1.114 2.716 2.266 5.524 2.266 8.449zM35.69 16.014c-1.497.679-2.97 1.76-4.361 3.22a11.012 11.012 0 00-4.286-2.164 42.618 42.618 0 00-.187-3.834c4.233-1.129 6.928.712 8.834 2.778zM14.796 2.878c2.605.304 4.432 1.106 5.572 2.442 1.987 2.33 1.63 5.939 1.217 10.117-.049.493-.099.999-.146 1.513a13.043 13.043 0 014.138-.157c-.077-6.416-1.368-10.696-3.94-13.072-1.711-1.58-3.963-2.333-6.872-2.286l.031 1.443zm.615 11.486c1.85-.393 3.582.032 4.696 1.135-.06.606-.12 1.228-.175 1.865a10.835 10.835 0 00-3.284 1.844c-1.334-1.393-2.742-2.44-4.174-3.118.531-.789 1.628-1.449 2.936-1.726zm-7.94 2.343c-2.776.505-4.882 2.252-5.634 4.675-1.05 3.386.301 6.682 1.732 10.172 1.166 2.842 2.371 5.78 2.371 8.983 0 4.655.644 8.574 1.862 11.333 1.343 3.04 3.334 4.582 5.918 4.582.217 0 1.146-.407 2.661-2.148a28.251 28.251 0 01-1.714-3.356.705.705 0 01.085-.716.74.74 0 011.263.154 25.874 25.874 0 001.913 3.64c1.876 2.924 4 4.54 6.072 4.54 2.537 0 4.62-2.321 5.922-4.268 1.786-2.673 3.3-6.435 4.262-10.593a.723.723 0 01.495-.542.744.744 0 01.724.16.707.707 0 01.21.698c-.927 4.002-2.356 7.666-4.055 10.42 1.245 1.377 2.268 2.011 2.722 2.011 2.726 0 4.695-1.497 6.02-4.576 1.168-2.715 1.76-6.53 1.76-11.339 0-3.202 1.205-6.141 2.371-8.983 1.431-3.49 2.783-6.785 1.732-10.172-.752-2.423-2.858-4.17-5.634-4.675-2.65-.48-5.522.766-8.14 3.516.652.69 1.224 1.45 1.706 2.264a.71.71 0 01-.263.98.741.741 0 01-1.002-.257 11.315 11.315 0 00-1.908-2.415l-.015-.012a.742.742 0 01-.07-.068c-1.827-1.7-4.145-2.584-6.837-2.584-2.512 0-4.69.747-6.475 2.221-1.943 1.605-3.323 4.002-4.102 7.125a.724.724 0 01-.506.521.744.744 0 01-.714-.17.708.708 0 01-.203-.691c.715-2.87 1.942-5.21 3.584-6.942-1.398-1.462-2.868-2.496-4.337-3.067a.882.882 0 01-.043-.017c-1.26-.482-2.52-.624-3.733-.404z" fill="#fff"/><path d="M5.575 28.166c.127.46.275.94.453 1.47.23.683.477 1.35.69 1.915a.672.672 0 00.52.441.646.646 0 00.62-.26.733.733 0 00.092-.7 55.84 55.84 0 01-.673-1.865 26.213 26.213 0 01-.428-1.392c-.154-.55-.279-1.11-.374-1.675-.08-.472-.129-.95-.15-1.429-.015-.386-.324-.686-.69-.67-.365.016-.65.342-.634.729.022.54.078 1.078.167 1.61.104.617.24 1.226.407 1.826zm2.474 6.818c.195.537.36 1.027.501 1.497.075.248.28.438.537.499a.75.75 0 00.71-.205.713.713 0 00.173-.704 30.306 30.306 0 00-.527-1.573.75.75 0 00-1.27-.238.712.712 0 00-.124.724z" fill="#fff"/></svg>