<svg width="59" height="59" fill="none" xmlns="http://www.w3.org/2000/svg"><path fill-rule="evenodd" clip-rule="evenodd" d="M41.843 29.964c.351.127.616.41.719.758.304.933 1.612 5.792-2.503 9.852-2.382 2.349-5.025 2.91-7.005 2.91a10.59 10.59 0 01-1.895-.172v7.537A1.16 1.16 0 0129.992 52a1.16 1.16 0 01-1.167-1.151v-7.534c-.505.092-1.146.169-1.879.169-1.98 0-4.623-.56-7.005-2.91-4.115-4.06-2.807-8.919-2.503-9.852.103-.348.368-.631.72-.758a8.384 8.384 0 011.54-.355c-3.818-4.007-2.558-8.689-2.26-9.603.103-.347.368-.63.72-.758.164-.059 3.028-1.055 6.29.07a10.21 10.21 0 01-.293-2.464c0-6.22 5.14-8.646 5.36-8.747.34-.155.73-.14 1.052.034.884.448 5.29 2.972 5.29 8.713 0 .897-.107 1.715-.29 2.459 3.255-1.118 6.112-.124 6.276-.065.351.127.616.41.719.758.298.914 1.558 5.596-2.26 9.603.894.129 1.47.33 1.54.355zm-13.19 11.04c.071-.316.146-.755.172-1.278v-.768c-.073-1.435-.576-3.26-2.258-4.92a7.66 7.66 0 00-2.713-1.755 9.675 9.675 0 01-.333-.116c-1.695-.543-3.225-.355-4.01-.187-.293 1.321-.571 4.35 2.081 6.966 2.693 2.656 5.814 2.331 7.061 2.058zm.172-11.993c-.026.523-.1.962-.172 1.277a7.856 7.856 0 01-3.928-.154 9.507 9.507 0 00-.503-.175 7.717 7.717 0 01-2.63-1.729c-2.652-2.616-2.374-5.644-2.08-6.965 1.246-.268 4.375-.585 7.055 2.058l.026.026c.007.009.015.016.023.024.102.113.205.222.307.326 1.397 1.555 1.834 3.216 1.902 4.544v.768zm-.245-6.94a7.91 7.91 0 001.428 1.163 7.82 7.82 0 001.237-.97c.166-.189.343-.377.532-.564.91-1.067 1.747-2.646 1.747-4.846 0-3.702-2.37-5.65-3.524-6.378-1.077.678-3.511 2.625-3.511 6.378 0 2.332.95 3.97 1.924 5.04.057.058.113.117.167.176zm2.586 6.567a7.228 7.228 0 011.804-4.82c.172-.169.345-.35.516-.545 2.678-2.599 5.763-2.281 7.002-2.01.294 1.32.574 4.35-2.08 6.967a7.715 7.715 0 01-2.625 1.727 9.44 9.44 0 00-.511.178 7.855 7.855 0 01-3.925.154 7.622 7.622 0 01-.181-1.622v-.03zm.183 12.367c1.244.272 4.366.598 7.059-2.06 2.654-2.617 2.374-5.647 2.08-6.967a7.86 7.86 0 00-3.921.156 9.39 9.39 0 01-.502.175 7.715 7.715 0 00-2.631 1.729c-2.684 2.648-2.356 5.742-2.085 6.967z" fill="#fff"/><path fill-rule="evenodd" clip-rule="evenodd" d="M29.853 0c2.096 0 4.19.215 6.222.637.63.132 1.033.739.9 1.357a1.166 1.166 0 01-1.383.882 28.224 28.224 0 00-5.739-.588c-15.175 0-27.52 12.114-27.52 27.003a26.726 26.726 0 005.715 16.474 4.48 4.48 0 011.987-.461c1.184 0 2.296.452 3.133 1.274a4.28 4.28 0 011.298 3.074c0 1.161-.46 2.253-1.298 3.075A4.446 4.446 0 0110.035 54a4.446 4.446 0 01-3.133-1.273 4.279 4.279 0 01-1.298-3.075c0-.848.246-1.658.704-2.353C2.236 42.175 0 35.81 0 29.29c0-7.824 3.105-15.18 8.744-20.712C14.383 3.047 21.879 0 29.854 0zM10.035 47.593a2.11 2.11 0 00-1.484.603 2.024 2.024 0 00-.615 1.456c0 .55.218 1.067.615 1.456a2.13 2.13 0 002.968 0c.397-.389.615-.906.615-1.456 0-.55-.218-1.068-.615-1.456a2.113 2.113 0 00-1.484-.603zm43.53-38.245c0 .848-.24 1.658-.684 2.353A29.566 29.566 0 0159 29.71c0 7.824-3.012 15.18-8.48 20.712C45.05 55.953 37.778 59 30.044 59c-1.716 0-3.436-.153-5.112-.455a1.143 1.143 0 01-.915-1.327 1.132 1.132 0 011.312-.926c1.545.278 3.132.42 4.715.42 14.718 0 26.693-12.114 26.693-27.003a27.258 27.258 0 00-5.544-16.474c-.59.3-1.247.46-1.927.46a4.245 4.245 0 01-3.04-1.273 4.345 4.345 0 01-1.258-3.074c0-1.161.447-2.253 1.259-3.075A4.246 4.246 0 0149.267 5a4.25 4.25 0 013.04 1.273 4.345 4.345 0 011.258 3.075zm-4.298 2.06a2.01 2.01 0 001.44-.604 2.06 2.06 0 00.596-1.456 2.06 2.06 0 00-.596-1.456 2.01 2.01 0 00-1.44-.604 2.01 2.01 0 00-1.44.604 2.079 2.079 0 000 2.912c.385.39.896.604 1.44.604z" fill="#fff"/><path d="M19.366 55.074l-.375.923.372-.924a.99.99 0 00-1.29.55 1 1 0 00.547 1.299l.03.012a.993.993 0 001.283-.573.996.996 0 00-.567-1.287zM40.379 2.079l-.018-.007a.991.991 0 00-1.29.555.998.998 0 00.553 1.296l.011.004a.993.993 0 001.292-.55.998.998 0 00-.548-1.298z" fill="#fff"/></svg>