<svg width="63" height="55" viewBox="0 0 63 55" fill="none" xmlns="http://www.w3.org/2000/svg">
<path fill-rule="evenodd" clip-rule="evenodd" d="M5 44.5C5 41.4625 7.46249 39 10.5 39C13.5361 39.0034 15.9966 41.4639 16 44.5C16 47.5375 13.5375 50 10.5 50C7.46249 50 5 47.5375 5 44.5ZM7.2 44.5C7.2 46.3226 8.67744 47.8 10.5 47.8C12.3216 47.7979 13.7979 46.3216 13.8 44.5C13.8 42.6774 12.3226 41.2 10.5 41.2C8.67744 41.2 7.2 42.6774 7.2 44.5Z" fill="white"/>
<path d="M18 28H21C21.5522 28 22 27.3284 22 26.5C22 25.6716 21.5522 25 21 25H18C17.4477 25 17 25.6716 17 26.5C17 27.3284 17.4477 28 18 28Z" fill="white"/>
<path d="M18 30H21C21.5522 30 22 29.5523 22 29C22 28.4477 21.5522 28 21 28H18C17.4477 28 17 28.4477 17 29C17 29.5523 17.4477 30 18 30Z" fill="white"/>
<path d="M18 34H21C21.5522 34 22 33.3284 22 32.5C22 31.6716 21.5522 31 21 31H18C17.4477 31 17 31.6716 17 32.5C17 33.3284 17.4477 34 18 34Z" fill="white"/>
<path fill-rule="evenodd" clip-rule="evenodd" d="M53.55 27.8443V30.0175C59.1126 31.4643 62.9993 36.5183 63 42.3056C63.0008 49.3154 57.3602 54.9988 50.4015 54.9996C43.4427 55.0004 37.8008 49.3183 37.8 42.3085H35.7V45.4816C35.7 46.0657 35.2299 46.5393 34.65 46.5393H25.2C24.6202 46.5393 24.15 46.0657 24.15 45.4816V42.3085H20.7887C21.4835 45.7446 20.4406 49.3041 18.005 51.8094C17.9797 51.8418 17.8638 51.9585 17.8316 51.984C13.7586 56.0053 7.24044 56.0053 3.16736 51.984C3.1352 51.9585 3.01931 51.8418 2.99397 51.8094C-0.997992 47.7064 -0.997992 41.1404 2.99397 37.0374C3.01931 37.005 3.12378 36.8981 3.15003 36.8769V26.4428C3.15003 26.0197 3.40032 25.6374 3.78646 25.4706L18.4865 19.1244C18.6172 19.0679 18.7579 19.0388 18.9 19.0388H21.1575L22.2919 6.16355C21.0343 5.71403 20.1944 4.51498 20.1955 3.17063C20.1968 1.41813 21.6082 -0.00145212 23.348 2.23126e-06H52.5C53.0799 2.23126e-06 53.55 0.473593 53.55 1.05771V25.6865C55.1863 25.999 56.7673 26.5553 58.2407 27.3372C58.7534 27.6103 58.9494 28.2503 58.6783 28.7667C58.4073 29.2832 57.7719 29.4805 57.2593 29.2075C56.0897 28.5863 54.8419 28.1277 53.55 27.8443ZM23.348 2.11543C22.9499 2.1141 22.5857 2.34085 22.4087 2.70008C22.3358 2.84697 22.2978 3.00893 22.2978 3.17327C22.298 3.75739 22.7681 4.23085 23.348 4.23085H51.45V2.11543H23.348ZM51.45 6.34627V19.0388H49.35V6.34627H51.45ZM47.25 19.0388V6.34627H28.2123L27.3723 19.0388H47.25ZM26.1077 6.34627L25.2677 19.0388H23.2657L24.384 6.34627H26.1077ZM7.35003 27.5005H5.25003V29.6159H7.35003V27.5005ZM5.25003 31.7314H8.40003C8.97989 31.7314 9.45003 31.2578 9.45003 30.6736V26.4428C9.4499 26.0756 9.26063 25.7349 8.94997 25.543L19.1155 21.1542H24.15V35.9622H16.8V35.968C13.439 33.4188 8.88959 33.1438 5.25003 35.2698V31.7314ZM17.1293 49.6112C18.0569 48.4136 18.6453 46.9854 18.8324 45.4782C18.3055 45.4446 17.8856 45.0215 17.8521 44.4907C17.8155 43.9085 18.2544 43.4065 18.8324 43.3696C18.6453 41.8624 18.0569 40.4342 17.1293 39.2366C16.7339 39.5857 16.1429 39.5857 15.7473 39.2366C15.3117 38.8521 15.2678 38.1847 15.6495 37.7459C14.4606 36.8116 13.0429 36.2188 11.5466 36.0303C11.5131 36.5611 11.0933 36.9842 10.5663 37.0178C9.98828 37.0547 9.49006 36.6126 9.45344 36.0303C7.95719 36.2188 6.53943 36.8116 5.35057 37.7459C5.69707 38.1443 5.69707 38.7396 5.35057 39.1381C4.96889 39.5769 4.30634 39.6211 3.87072 39.2366C2.94318 40.4342 2.35479 41.8624 2.16763 43.3696C2.69459 43.4033 3.11459 43.8263 3.14793 44.3571C3.18455 44.9393 2.74565 45.4413 2.16763 45.4782C2.35479 46.9854 2.94318 48.4136 3.87072 49.6112C4.26618 49.2621 4.8572 49.2621 5.25279 49.6112C5.68841 49.9957 5.73224 50.6631 5.35057 51.1019C6.53943 52.0363 7.95719 52.629 9.45344 52.8175C9.48691 52.2867 9.90678 51.8636 10.4337 51.83C11.0118 51.7931 11.51 52.2352 11.5466 52.8175C13.0429 52.629 14.4606 52.0363 15.6495 51.1019C15.303 50.7035 15.303 50.1082 15.6495 49.7097C16.0312 49.2709 16.6937 49.2267 17.1293 49.6112ZM33.6 44.4239H26.25V42.3085H33.6V44.4239ZM20.1206 40.1931H33.7313C33.8196 39.48 33.9533 38.7735 34.1316 38.0776H18.8942C19.383 38.7325 19.7946 39.4425 20.1206 40.1931ZM34.8269 35.9622H26.25V21.1542H51.45V25.4187C51.1007 25.3966 50.7508 25.3854 50.4 25.3851C43.5568 25.3928 37.3998 29.5746 34.8269 35.9622ZM35.8507 40.1931H37.976C38.0962 39.4733 38.2785 38.7655 38.5207 38.0776H36.3124C36.107 38.7703 35.9527 39.4774 35.8507 40.1931ZM37.1205 35.9622C39.5571 30.7983 44.7241 27.5059 50.4 27.5005C50.7507 27.5005 51.1009 27.5148 51.45 27.5402V29.6605C51.1036 29.6315 50.7536 29.6161 50.4 29.6161C45.9001 29.6188 41.7428 32.0374 39.4914 35.9623L37.1205 35.9622ZM60.8475 43.3662H59.85C59.2701 43.3662 58.8 42.8926 58.8 42.3085C58.8 41.7244 59.2701 41.2508 59.85 41.2508H60.8475C60.6422 39.1837 59.8346 37.2241 58.5262 35.6185L57.8247 36.325L57.8079 36.3419C57.3933 36.7502 56.7284 36.7427 56.3231 36.325C55.9178 35.9073 55.9252 35.2377 56.3399 34.8293L57.0413 34.1226C55.4474 32.8045 53.502 31.991 51.45 31.7842V32.7891C51.45 33.3732 50.9799 33.8468 50.4 33.8468C49.8201 33.8468 49.35 33.3732 49.35 32.7891V31.7842C47.298 31.991 45.3527 32.8045 43.7588 34.1226L44.4602 34.8293C44.8592 35.2403 44.8592 35.897 44.4602 36.3081C44.0547 36.7259 43.3899 36.7334 42.9753 36.325L42.2738 35.6185C40.9654 37.2241 40.1578 39.1837 39.9525 41.2508H40.95C41.5299 41.2508 42 41.7244 42 42.3085C42 42.8926 41.5299 43.3662 40.95 43.3662H39.9525C40.1578 45.4332 40.9654 47.3929 42.2738 48.9985L42.9753 48.292C43.3834 47.89 44.0353 47.89 44.4434 48.292C44.8581 48.7004 44.8656 49.37 44.4602 49.7877L43.7588 50.4944C45.3527 51.8124 47.298 52.6259 49.35 52.8327V51.8279C49.35 51.2438 49.8201 50.7702 50.4 50.7702C50.9799 50.7702 51.45 51.2438 51.45 51.8279V52.8327C53.502 52.6259 55.4474 51.8124 57.0413 50.4944L56.3399 49.7877C55.9409 49.3766 55.9409 48.7199 56.3399 48.3089C56.7453 47.8911 57.4101 47.8835 57.8247 48.292L58.5262 48.9985C59.8346 47.3929 60.6422 45.4332 60.8475 43.3662Z" fill="white"/>
<path fill-rule="evenodd" clip-rule="evenodd" d="M44 42.5C44 38.9101 46.9101 36 50.5 36C54.0881 36.0041 56.9959 38.9119 57 42.5C57 46.0899 54.0899 49 50.5 49C46.9101 49 44 46.0899 44 42.5ZM46.1667 42.5C46.1667 44.8932 48.1068 46.8333 50.5 46.8333C52.8921 46.8306 54.8306 44.8921 54.8333 42.5C54.8333 40.1068 52.8932 38.1667 50.5 38.1667C48.1068 38.1667 46.1667 40.1068 46.1667 42.5Z" fill="white"/>
<ellipse cx="50" cy="42.5" rx="1" ry="1.5" fill="white"/>
<ellipse cx="11" cy="44.5" rx="1" ry="1.5" fill="white"/>
</svg>
