<svg width="18" height="17" viewBox="0 0 18 17" fill="none" xmlns="http://www.w3.org/2000/svg">
<path d="M9 0.375C4.00781 0.375 0 3.67969 0 7.6875C0 9.375 0.667969 10.9219 1.82812 12.1523C1.33594 13.5234 0.246094 14.7188 0.210938 14.7188C-0.0351562 14.9648 -0.0703125 15.3164 0.0351562 15.6328C0.175781 15.9492 0.492188 16.125 0.84375 16.125C2.98828 16.125 4.71094 15.2461 5.73047 14.5078C6.75 14.8242 7.83984 15 9 15C13.957 15 18 11.7305 18 7.6875C18 3.67969 13.957 0.375 9 0.375ZM9 13.3125C8.05078 13.3125 7.10156 13.1719 6.22266 12.8906L5.41406 12.6445L4.74609 13.1367C4.25391 13.4883 3.55078 13.875 2.70703 14.1562C2.98828 13.7344 3.23438 13.2422 3.41016 12.75L3.79688 11.7656L3.05859 10.9922C2.42578 10.3242 1.6875 9.19922 1.6875 7.6875C1.6875 4.59375 4.95703 2.0625 9 2.0625C13.0078 2.0625 16.3125 4.59375 16.3125 7.6875C16.3125 10.8164 13.0078 13.3125 9 13.3125Z" fill="#FAB522"/>
</svg>
