<svg width="126" height="126" viewBox="0 0 126 126" fill="none" xmlns="http://www.w3.org/2000/svg">
<path d="M31.4961 7.87402V0H3.93701C1.76255 0 0 1.76255 0 3.93701V31.4961H7.87402V13.4252L44.4488 50L50 44.4488L13.4252 7.87402H31.4961Z" fill="white"/>
<path d="M122.063 0H94.5039V7.87402H112.575L76 44.4488L81.5512 50L118.126 13.4252V31.4961H126V3.93701C126 1.76255 124.237 0 122.063 0Z" fill="white"/>
<path d="M118.126 112.575L81.5512 76L76 81.5512L112.575 118.126H94.5039V126H122.063C124.237 126 126 124.237 126 122.063V94.5039H118.126V112.575Z" fill="white"/>
<path d="M44.4488 76L7.87402 112.585V94.5287H0V122.066C0 124.239 1.76255 126 3.93701 126H31.4961V118.132H13.4252L50 81.5862L44.4488 76Z" fill="white"/>
</svg>
