<svg width="60" height="60" viewBox="0 0 60 60" fill="none" xmlns="http://www.w3.org/2000/svg">
<path fill-rule="evenodd" clip-rule="evenodd" d="M60 24.4941C60 26.1 58.6916 27.4066 57.0836 27.4066H56.2086V39.2428H57.0831C58.6912 39.2428 59.9995 40.5495 59.9995 42.1554V51.2638C59.9995 52.8697 58.6912 54.1764 57.0831 54.1764H56.2086V56.7376C56.2086 58.5366 54.7432 60 52.9419 60H44.5221C42.7208 60 41.2554 58.5366 41.2554 56.7376V54.1764H37.4807V56.7376C37.4807 58.5366 36.0153 60 34.214 60H25.7942C23.9929 60 22.5275 58.5366 22.5275 56.7376V54.1764H18.7528V56.7376C18.7528 58.5366 17.2874 60 15.4861 60H7.06633C5.26502 60 3.79965 58.5366 3.79965 56.7376V54.1764H2.91642C1.30836 54.1764 0 52.8697 0 51.2638V42.1554C0 40.5495 1.30836 39.2428 2.91642 39.2428H3.79965V35.3413C3.79965 34.8558 4.19368 34.4624 4.67972 34.4624C5.16575 34.4624 5.55978 34.8558 5.55978 35.3413V56.7375C5.55978 57.5671 6.23555 58.2421 7.06633 58.2421H15.4862C16.317 58.2421 16.9928 57.5671 16.9928 56.7375V10.0227C16.9928 9.82466 16.9327 9.63411 16.8192 9.47169L11.5154 1.88146C11.399 1.71482 11.1534 1.71529 11.0372 1.88146L5.73333 9.47169C5.61974 9.63411 5.55978 9.82478 5.55978 10.0228V31.2309C5.55978 31.7165 5.16575 32.1099 4.67972 32.1099C4.19368 32.1099 3.79965 31.7165 3.79965 31.2309V27.4066H2.91642C1.30836 27.4066 0 26.1 0 24.4941V15.3857C0 13.7797 1.30836 12.4731 2.91642 12.4731H3.79965V10.0228C3.79965 9.46314 3.96921 8.92466 4.28991 8.46575L9.59376 0.875522C10.4093 -0.291665 12.143 -0.292017 12.9588 0.875522L18.2626 8.46575C18.5833 8.92454 18.7529 9.46302 18.7529 10.0228V12.4731H22.5277V10.0228C22.5277 9.46302 22.6972 8.92454 23.018 8.46564L28.3219 0.875522C29.1374 -0.291665 30.8711 -0.292017 31.6869 0.875522L36.9908 8.46575C37.3115 8.92454 37.481 9.46302 37.481 10.0228V12.4731H41.2558V10.0228C41.2558 9.46302 41.4254 8.92454 41.7462 8.46564L47.0499 0.875522C47.8654 -0.291665 49.5992 -0.292017 50.4149 0.875522L51.9952 3.13677C52.2734 3.53486 52.1758 4.08283 51.7771 4.36056C51.3785 4.63841 50.8301 4.54103 50.5517 4.14283L48.9715 1.88146C48.8551 1.71482 48.6095 1.71529 48.4933 1.88146L43.1896 9.47169C43.076 9.63423 43.016 9.82478 43.016 10.0228V56.7377C43.016 57.5673 43.6918 58.2423 44.5226 58.2423H52.9423C53.7731 58.2423 54.4489 57.5673 54.4489 56.7377V10.0229C54.4489 9.82489 54.3888 9.63435 54.2754 9.47193L52.8995 7.50294C52.6213 7.10486 52.7189 6.55689 53.1175 6.27915C53.5162 6.00154 54.0647 6.09869 54.3429 6.49689L55.7188 8.46575C56.0395 8.92454 56.209 9.46302 56.209 10.0228V12.4731H57.0836C58.6916 12.4731 60 13.7797 60 15.3857V24.4941ZM1.76013 24.4941C1.76013 25.1309 2.2789 25.6488 2.91642 25.6488V25.6487H3.79965V14.2309H2.91642C2.27878 14.2309 1.76013 14.7489 1.76013 15.3857V24.4941ZM2.91642 52.4186C2.2789 52.4186 1.76013 51.9006 1.76013 51.2638V42.1554C1.76013 41.5186 2.27878 41.0006 2.91642 41.0006H3.79965V52.4184H2.91642V52.4186ZM41.2557 27.4066H37.4809V39.2428H41.2557V27.4066ZM41.2558 14.231V25.6488H37.481V14.231H41.2558ZM22.5277 27.4066H18.7529V39.2428H22.5277V27.4066ZM22.5277 14.231V25.6488H18.7529V14.231H22.5277ZM18.7529 41.0007V52.4186H22.5277V41.0007H18.7529ZM35.7208 56.7376C35.7208 57.5672 35.045 58.2422 34.2142 58.2422H25.7945C24.9637 58.2422 24.2879 57.5672 24.2879 56.7376V10.0228C24.2879 9.82478 24.3479 9.63423 24.4615 9.47169L29.7652 1.88146C29.8814 1.71529 30.127 1.71482 30.2434 1.88146L35.5472 9.47169C35.6607 9.63411 35.7208 9.82466 35.7208 10.0227V56.7376ZM37.4809 41.0007V52.4186H41.2557V41.0007H37.4809ZM57.0836 14.231C57.7211 14.231 58.2399 14.749 58.2399 15.3858V24.4942C58.2399 25.131 57.7211 25.649 57.0836 25.649H56.209V14.2311H57.0836V14.231ZM58.2399 42.1555C58.2399 41.5187 57.7211 41.0007 57.0836 41.0007V41.0009H56.209V52.4187H57.0836C57.7211 52.4187 58.2399 51.9007 58.2399 51.2639V42.1555Z" fill="white"/>
<path fill-rule="evenodd" clip-rule="evenodd" d="M47 46.5C47 45.1216 48.1215 44 49.5 44C50.8784 44 52 45.1216 52 46.5C52 47.8785 50.8785 49 49.5 49C48.1215 49 47 47.8785 47 46.5ZM48.4337 46.5001C48.4337 47.088 48.912 47.5664 49.5 47.5664C50.0879 47.5664 50.5663 47.088 50.5663 46.5001C50.5663 45.9122 50.0879 45.4338 49.5 45.4338C48.912 45.4338 48.4337 45.9122 48.4337 46.5001Z" fill="white"/>
<path fill-rule="evenodd" clip-rule="evenodd" d="M47 20.5C47 19.1216 48.1215 18 49.5 18C50.8784 18 51.9999 19.1215 52 20.5C52 21.8785 50.8785 23 49.5 23C48.1215 23 47 21.8785 47 20.5ZM48.4337 20.5C48.4337 21.0879 48.912 21.5663 49.5 21.5663C50.0879 21.5663 50.5663 21.0879 50.5663 20.5C50.5663 19.9121 50.0879 19.4337 49.5 19.4337C48.912 19.4337 48.4337 19.9121 48.4337 20.5Z" fill="white"/>
<path fill-rule="evenodd" clip-rule="evenodd" d="M28 46.5C28 45.1216 29.1215 44 30.5 44C31.8785 44 33 45.1216 33 46.5C33 47.8785 31.8785 49 30.5 49C29.1215 49 28 47.8785 28 46.5ZM29.4337 46.5001C29.4337 47.088 29.9121 47.5664 30.5 47.5664C31.0879 47.5664 31.5663 47.088 31.5663 46.5001C31.5663 45.9122 31.0879 45.4338 30.5 45.4338C29.9121 45.4338 29.4337 45.9122 29.4337 46.5001Z" fill="white"/>
<path fill-rule="evenodd" clip-rule="evenodd" d="M28 20.5C28 19.1216 29.1215 18 30.5 18C31.8785 18 33 19.1215 33 20.5C33 21.8785 31.8785 23 30.5 23C29.1215 23 28 21.8785 28 20.5ZM29.4337 20.5C29.4337 21.0879 29.9121 21.5663 30.5 21.5663C31.0879 21.5663 31.5663 21.0879 31.5663 20.5C31.5663 19.9121 31.0879 19.4337 30.5 19.4337C29.9121 19.4337 29.4337 19.9121 29.4337 20.5Z" fill="white"/>
<path fill-rule="evenodd" clip-rule="evenodd" d="M13 46.5C13 47.8785 11.8785 49 10.5 49C9.1215 49 8 47.8785 8 46.5C8 45.1216 9.1215 44 10.5 44C11.8785 44 13 45.1216 13 46.5ZM11.5663 46.5C11.5663 45.9121 11.088 45.4337 10.5 45.4337C9.91211 45.4337 9.43375 45.9121 9.43375 46.5C9.43375 47.0879 9.91211 47.5663 10.5 47.5663C11.088 47.5663 11.5663 47.0879 11.5663 46.5Z" fill="white"/>
<path fill-rule="evenodd" clip-rule="evenodd" d="M13 20.5C13 21.8785 11.8785 23 10.5 23C9.1215 23 8.0001 21.8785 8 20.5C8 19.1216 9.1215 18 10.5 18C11.8785 18 13 19.1216 13 20.5ZM11.5663 20.5C11.5663 19.9121 11.088 19.4337 10.5 19.4337C9.91211 19.4337 9.43375 19.9121 9.43375 20.5C9.43375 21.0879 9.91211 21.5663 10.5 21.5663C11.088 21.5663 11.5663 21.0879 11.5663 20.5Z" fill="white"/>
</svg>
