<svg width="18" height="18" viewBox="0 0 18 18" fill="none" xmlns="http://www.w3.org/2000/svg">
<path d="M4.15625 18H0.523438V6.32031H4.15625V18ZM2.35938 4.71875C1.78646 4.71875 1.29167 4.51042 0.875 4.09375C0.458333 3.67708 0.25 3.18229 0.25 2.60938C0.25 2.03646 0.458333 1.54167 0.875 1.125C1.29167 0.708333 1.78646 0.5 2.35938 0.5C2.72396 0.5 3.0625 0.591146 3.375 0.773438C3.71354 0.955729 3.97396 1.21615 4.15625 1.55469C4.36458 1.86719 4.46875 2.21875 4.46875 2.60938C4.46875 2.97396 4.36458 3.32552 4.15625 3.66406C3.97396 3.97656 3.71354 4.23698 3.375 4.44531C3.0625 4.6276 2.72396 4.71875 2.35938 4.71875ZM17.75 18H14.1172V12.2969C14.1172 11.8542 14.1042 11.5026 14.0781 11.2422C14.0521 10.9557 13.987 10.6432 13.8828 10.3047C13.7786 9.9401 13.5833 9.66667 13.2969 9.48438C13.0365 9.30208 12.6849 9.21094 12.2422 9.21094C11.3828 9.21094 10.7969 9.48438 10.4844 10.0312C10.1979 10.5781 10.0547 11.3073 10.0547 12.2188V18H6.42188V6.32031H9.9375V7.92188H9.97656C10.237 7.40104 10.6667 6.95833 11.2656 6.59375C11.8646 6.20312 12.5807 6.00781 13.4141 6.00781C14.2995 6.00781 15.0286 6.15104 15.6016 6.4375C16.2005 6.69792 16.6432 7.10156 16.9297 7.64844C17.2422 8.16927 17.4505 8.74219 17.5547 9.36719C17.6849 9.99219 17.75 10.7344 17.75 11.5938V18Z" fill="#7FB800"/>
</svg>
