<svg width="60" height="60" viewBox="0 0 60 60" fill="none" xmlns="http://www.w3.org/2000/svg">
<path fill-rule="evenodd" clip-rule="evenodd" d="M58.4159 46.0294C58.1575 45.7711 57.8732 45.5387 57.5709 45.3388C57.1653 45.0707 56.6191 45.1822 56.3508 45.5878C56.0827 45.9934 56.1943 46.5397 56.5999 46.8078C57.6146 47.4787 58.2391 48.6332 58.2391 49.8537C58.2391 50.8281 57.8597 51.744 57.1707 52.433C56.4462 53.1575 55.4452 53.5473 54.4184 53.4973C54.1718 53.4866 53.9296 53.579 53.7543 53.7541C53.579 53.9294 53.4858 54.1705 53.4974 54.4182C53.5457 55.4427 53.1578 56.4459 52.4331 57.1705C50.995 58.6084 48.6966 58.5921 47.2748 57.1705C46.5857 56.4815 46.2064 55.5656 46.2064 54.5913C46.2064 53.6169 46.5857 52.701 47.2748 52.012C47.3315 51.9553 47.3919 51.8979 47.4532 51.8396C47.915 51.4006 48.4289 50.9121 47.819 50.3021L44.3395 46.8227L46.8229 44.3393L50.3023 47.8188C50.6743 48.1908 51.3289 48.1379 51.6372 47.7141C51.751 47.5574 51.8773 47.4096 52.0122 47.2746C52.4308 46.8559 52.9268 46.5538 53.4867 46.3766C53.9502 46.2298 54.2071 45.735 54.0604 45.2714C53.9137 44.8077 53.4187 44.5512 52.9552 44.6976C52.1881 44.9406 51.4763 45.3593 50.8871 45.9129L47.7756 42.8014C47.7756 42.8014 46.9584 40.7462 46.822 39.7787C46.5284 37.6955 46.4996 35.6228 46.5214 33.5316C46.5374 31.9911 46.5529 30.4472 46.4045 28.912C45.652 21.1269 41.705 14.2957 38.5265 9.93596C35.7053 6.06646 32.1637 2.63993 31.8284 2.31556L31.8034 2.29135C29.4743 -0.0378643 25.7297 -0.61431 21.259 0.667605C16.9688 1.89796 12.4699 4.71175 8.59083 8.59077C4.71181 12.4698 1.89802 16.9687 0.667666 21.259C-0.614365 25.7296 -0.0378022 29.4743 2.29118 31.8034L2.31388 31.8268C2.62688 32.1512 6.0342 35.6819 9.93579 38.5264C13.5091 41.1315 17.4261 43.3236 21.6122 44.7726C22.8363 45.1964 24.0834 45.5548 25.3482 45.8351C27.3856 46.2867 29.4597 46.5224 31.5534 46.5285C32.0542 46.5299 32.5549 46.5278 33.0554 46.5257C35.2999 46.5162 37.5409 46.5066 39.7786 46.8219C40.6003 46.9376 42.1385 47.529 42.6124 47.7113L42.6128 47.7114C42.6967 47.7437 42.7471 47.7631 42.7543 47.7647L45.9129 50.8869C44.9651 51.8937 44.4452 53.2024 44.4452 54.5914C44.4452 56.036 45.0078 57.3942 46.0293 58.4158C47.0509 59.4374 48.4092 60 49.8537 60C51.2984 60 52.6566 59.4374 53.6783 58.4158C54.5415 57.5525 55.0824 56.423 55.2247 55.2247C56.4229 55.0824 57.5526 54.5414 58.4158 53.6783C59.4373 52.6567 59.9999 51.2985 59.9999 49.8538C60 48.4092 59.4374 47.0509 58.4159 46.0294ZM2.36044 21.7445C3.50981 17.7366 6.1647 13.5074 9.83606 9.83612C13.5073 6.16475 17.7365 3.50975 21.7444 2.3605C23.1439 1.95925 24.4498 1.76038 25.6345 1.76038C27.6903 1.76038 29.3806 2.35909 30.5581 3.53647C32.4141 5.39237 32.8318 8.52257 31.7342 12.3501C30.5849 16.3581 27.93 20.5873 24.2587 24.2585C20.5874 27.9299 16.3583 30.5849 12.3503 31.734C8.52239 32.8318 5.39267 32.4141 3.53665 30.5579C1.68052 28.7021 1.26286 25.5719 2.36044 21.7445ZM38.2908 44.8844C38.8686 44.9331 39.4461 44.9966 40.0242 45.078C41.0552 45.2233 41.9683 45.5498 42.7905 45.8812L45.8809 42.7908C45.5498 41.9685 45.2233 41.0552 45.078 40.0247C44.7977 38.0356 44.8013 36.0396 44.805 34.0444C44.8081 32.388 44.8111 30.7322 44.6516 29.0816C43.9387 21.7072 40.1671 15.1828 37.1286 11.008C36.0426 9.51573 34.9711 8.21073 34.0185 7.12663C34.218 8.82538 34.0246 10.7515 33.427 12.8357C32.1966 17.1258 29.3828 21.6248 25.5039 25.5039C21.6249 29.3828 17.1258 32.1965 12.8357 33.4269C11.2784 33.8735 9.80888 34.0946 8.457 34.0946C7.99927 34.0946 7.5556 34.0685 7.12587 34.018C8.21009 34.9707 9.51567 36.0425 11.0079 37.1286C14.9505 39.9978 19.0839 42.2531 23.7909 43.6195C26.9882 44.5476 29.9836 44.7975 33.3203 44.7499C34.99 44.7261 36.6409 44.7452 38.2908 44.8844Z" fill="white"/>
<path d="M13.3553 29.7043C16.6396 28.6008 20.1431 26.2981 23.2207 23.2206C26.2983 20.143 28.6008 16.6395 29.7045 13.3551C30.8776 9.86376 30.5701 6.98739 28.8388 5.25583C25.3769 1.79446 17.4863 4.26196 10.8741 10.8737C9.8562 11.8916 8.91213 12.9685 8.06756 14.0748C7.7726 14.4614 7.84678 15.0139 8.23327 15.309C8.6201 15.604 9.17241 15.5298 9.46748 15.1433C10.2645 14.099 11.1567 13.0816 12.1194 12.119C17.8361 6.40228 24.9226 3.82966 27.5936 6.50107C28.8095 7.717 28.9706 10.0107 28.0354 12.7942C27.0168 15.8257 24.8646 19.0862 21.9756 21.9751C19.0867 24.8641 15.8262 27.0163 12.7947 28.0349C10.0115 28.97 7.71752 28.8093 6.50147 27.5931C4.84807 25.9397 5.16272 22.4315 7.3226 18.4377C7.55393 18.0099 7.39467 17.4757 6.96694 17.2445C6.53932 17.0129 6.00495 17.1723 5.77373 17.6001C3.18998 22.3775 2.99663 26.5788 5.25635 28.8384C6.29663 29.8787 7.74987 30.405 9.50194 30.4049C10.6655 30.405 11.9617 30.1727 13.3553 29.7043V29.7043Z" fill="white"/>
<path fill-rule="evenodd" clip-rule="evenodd" d="M23.9321 14.7865C22.5212 16.3254 20.8744 17.176 19.5365 17.176C18.9009 17.176 18.335 16.984 17.897 16.5828C16.5379 15.3365 17.0823 12.6849 19.1636 10.4147C20.0737 9.42205 21.1451 8.66806 22.1806 8.29142C23.4092 7.8447 24.481 7.96084 25.1985 8.61861C26.5577 9.86466 26.0133 12.5163 23.9321 14.7865ZM22.7823 9.94623C22.0193 10.2238 21.1735 10.8283 20.4617 11.6047C18.9824 13.2182 18.6548 14.8881 19.0872 15.2846C19.5198 15.6809 21.1547 15.2098 22.6341 13.5964C23.3472 12.8184 24.0595 11.7855 24.1714 10.7035C24.2723 9.72697 23.5502 9.66685 22.7823 9.94623Z" fill="white"/>
</svg>
