<svg width="19" height="35" viewBox="0 0 19 35" fill="none" xmlns="http://www.w3.org/2000/svg">
<path d="M1.36197 0.213593C1.04766 -0.0783666 0.546716 -0.0699495 0.243092 0.232282C-0.0530403 0.527167 -0.0530403 0.994603 0.243092 1.28942L17.0908 17.4914L0.241534 33.6919C-0.0727725 33.9838 -0.0814518 34.4654 0.222098 34.7677C0.525723 35.07 1.0266 35.0783 1.34098 34.7864C1.34758 34.7803 1.35403 34.7741 1.36041 34.7677L18.7683 18.0286C19.0772 17.7315 19.0772 17.2499 18.7683 16.9527L1.36197 0.213593Z" fill="url(#paint0_linear)"/>
<path d="M0.793016 35C0.355841 35.0008 0.000817545 34.6607 1.22831e-06 34.2405C-0.000369825 34.0379 0.0833398 33.8435 0.232577 33.7004L17.0885 17.5004L0.232577 1.3005C-0.0769552 1.00298 -0.0769552 0.520652 0.232577 0.223137C0.54211 -0.0743789 1.04392 -0.0743789 1.35345 0.223137L18.7682 16.9618C19.0773 17.2589 19.0773 17.7405 18.7682 18.0377L1.35345 34.7763C1.20503 34.9195 1.00333 35 0.793016 35Z" fill="url(#paint1_linear)"/>
<defs>
<linearGradient id="paint0_linear" x1="28.8156" y1="31.3821" x2="-4.97045" y2="-6.62243" gradientUnits="userSpaceOnUse">
<stop stop-color="#7FB800"/>
<stop offset="1" stop-color="#0F9B0F"/>
</linearGradient>
<linearGradient id="paint1_linear" x1="28.8156" y1="31.3821" x2="-4.97045" y2="-6.62243" gradientUnits="userSpaceOnUse">
<stop stop-color="#7FB800"/>
<stop offset="1" stop-color="#0F9B0F"/>
</linearGradient>
</defs>
</svg>
