<svg width="73" height="76" viewBox="0 0 73 76" fill="none" xmlns="http://www.w3.org/2000/svg">
<path fill-rule="evenodd" clip-rule="evenodd" d="M57.662 68.1453C57.2863 67.6594 56.5941 67.574 56.115 67.9545C51.4908 71.6271 45.9339 73.5686 40.0449 73.5686C38.0781 73.5686 36.1335 73.3466 34.2381 72.9095C35.7508 72.0243 37.1719 70.9588 38.4709 69.7225C42.7048 65.6933 45.2514 60.249 45.6414 54.393C45.688 53.6952 45.445 53.0025 44.9746 52.4919C44.5054 51.9826 43.842 51.6906 43.1548 51.6906H39.9778H33.7036C33.0949 51.6906 32.6017 52.1907 32.6017 52.8079C32.6017 53.4251 33.0949 53.9252 33.7036 53.9252H38.8385C38.5861 57.6868 37.0669 61.1008 34.7124 63.733L25.0406 53.9252H29.1126C29.7212 53.9252 30.2144 53.4251 30.2144 52.8079C30.2144 52.1907 29.7212 51.6906 29.1126 51.6906H14.3463C14.0876 50.1881 13.9548 48.6516 13.9548 47.1101C13.9548 40.7106 16.238 34.5343 20.3836 29.7189C20.7839 29.254 20.7366 28.5482 20.2782 28.1422C19.82 27.7366 19.1238 27.7844 18.7236 28.2492C14.2273 33.4719 11.7511 40.1702 11.7511 47.1102C11.7511 48.6493 11.8729 50.1842 12.1112 51.6907H5.66951H2.49252C1.80556 51.6907 1.14239 51.9827 0.673005 52.4916C0.202589 53.0022 -0.0406983 53.6949 0.00557925 54.393C0.395633 60.2493 2.94222 65.6936 7.1764 69.7227C11.4303 73.7707 16.9871 76 22.8237 76C25.7396 76 28.5857 75.4435 31.2346 74.3818C31.2397 74.3838 31.2448 74.3858 31.2498 74.3879C31.2572 74.391 31.2647 74.394 31.2725 74.3966C34.096 75.3301 37.0476 75.8034 40.0451 75.8034C46.4315 75.8034 52.4582 73.6976 57.4741 69.7139C57.9532 69.3334 58.0374 68.6311 57.662 68.1453ZM23.9254 55.9551L33.1236 65.2826C30.5977 67.4305 27.4129 68.806 23.9254 69.0469V55.9551ZM13.4225 53.9257L13.4137 53.9252H6.80882C7.06122 57.6868 8.5803 61.1009 10.9349 63.733L20.6067 53.9252H13.45C13.4446 53.9254 13.439 53.9261 13.4336 53.9261C13.4298 53.9261 13.4262 53.9259 13.4226 53.9257L13.4225 53.9257ZM21.7217 55.9552V69.0471C18.2341 68.8062 15.0493 67.4307 12.5234 65.2827L21.7217 55.9552ZM2.20442 54.2423C2.93355 65.1896 11.9906 73.7652 22.8237 73.7652C33.6569 73.7652 42.7138 65.1896 43.4427 54.2423C43.4504 54.1289 43.397 54.0529 43.3646 54.0176C43.3256 53.9754 43.2576 53.9252 43.1548 53.9252H41.0454C40.4736 63.6148 32.5201 71.3205 22.8237 71.3205C13.1273 71.3205 5.17368 63.6148 4.6019 53.9252H2.49252C2.38968 53.9252 2.32181 53.9754 2.28288 54.0176C2.25041 54.0529 2.19679 54.129 2.20442 54.2423Z" fill="#7FB800"/>
<path fill-rule="evenodd" clip-rule="evenodd" d="M72.9914 15.4212C73.0411 15.024 72.8746 14.6306 72.5548 14.3896C69.6264 12.1815 66.072 11.0676 62.5059 11.1204C62.3986 11.1077 62.293 11.1102 62.1911 11.1272C60.2376 11.1939 58.286 11.6109 56.4372 12.3926C55.6119 12.7415 54.8246 13.1559 54.0804 13.6281C54.018 13.661 53.9589 13.6996 53.9038 13.7436C53.6732 13.8943 53.446 14.0494 53.224 14.2109C53.11 13.1184 52.8875 12.036 52.5508 10.9743C50.8036 5.46917 46.2096 1.27422 40.5611 0.0264907C40.1706 -0.0601615 39.7626 0.0691457 39.4928 0.364897C37.0205 3.07393 35.5801 6.50766 35.3012 10.0616C35.2789 10.1666 35.2715 10.2714 35.2789 10.3739C35.1634 12.3245 35.3975 14.3061 36.0045 16.219C36.2744 17.0701 36.6127 17.8897 37.0118 18.6721C37.0381 18.7368 37.0702 18.7988 37.1079 18.8573C31.4828 19.4099 26.226 21.578 21.8077 25.1858C21.3291 25.5767 21.258 26.2814 21.6491 26.7598C21.8704 27.0304 22.1921 27.1707 22.5165 27.1707C22.7656 27.1707 23.0162 27.0881 23.2239 26.9185C27.5915 23.3522 32.8475 21.3113 38.4582 20.9963C40.7613 24.084 44.1307 26.3164 47.9943 27.1688C48.0745 27.1865 48.1553 27.1952 48.2355 27.1952C48.2405 27.1952 48.2454 27.195 48.2504 27.1947L48.2594 27.1941C48.2652 27.1937 48.2709 27.1933 48.2767 27.1931C50.8825 28.8134 53.8762 29.648 56.8892 29.648C57.7351 29.648 58.5823 29.5812 59.4228 29.4489C63.9721 34.3584 66.4764 40.7392 66.4764 47.4405C66.4764 54.0491 64.0275 60.3782 59.5809 65.2619C59.1649 65.7187 59.1983 66.4262 59.6553 66.8421C59.8699 67.0371 60.1394 67.1333 60.4083 67.1333C60.7124 67.1333 61.0154 67.0101 61.2363 66.7676C66.0587 61.4711 68.7146 54.6072 68.7146 47.4405C68.7146 40.5893 66.3013 34.0465 61.8912 28.8587C62.3321 28.7158 62.769 28.5546 63.1999 28.3724C68.5223 26.1215 72.2738 21.1593 72.9914 15.4212ZM67.9444 21.9755L64.5487 19.5972L70.3713 17.1353C69.8815 18.9031 69.0502 20.545 67.9444 21.9755ZM69.4998 15.0747C67.5885 14.0301 65.4696 13.4525 63.3236 13.3651L62.5631 18.0078L69.4998 15.0747ZM55.6434 15.2947C56.1758 14.9796 56.7315 14.6971 57.3092 14.4528C58.5147 13.9432 59.771 13.614 61.0402 13.4585L60.1261 19.0381L54.8733 21.2591L55.6434 15.2947ZM50.6016 12.2846C50.5449 12.0725 50.484 11.861 50.4176 11.6506C49.9141 10.0646 49.136 8.60536 48.1421 7.32422L44.7338 11.3327L46.4732 16.8164L50.6016 12.2846ZM46.6205 5.65888L43.9355 8.81684L42.0249 2.79325C43.7402 3.4453 45.2985 4.42532 46.6205 5.65888ZM42.1674 10.645L39.8911 3.46887C38.6727 5.2738 37.9003 7.32869 37.6135 9.45622L42.1674 10.645ZM38.8214 17.2792C38.5571 16.7199 38.3278 16.1405 38.1383 15.5428C37.7425 14.2958 37.5314 13.0151 37.4944 11.7375L42.9671 13.1662L44.6909 18.6003L38.8214 17.2792ZM45.4741 21.0697L40.4702 19.9434C42.0372 21.9368 44.1309 23.4894 46.5308 24.4013L45.4741 21.0697ZM47.8095 21.0293L47.255 19.2813L51.0525 15.1128C51.0706 15.4378 51.0767 15.7636 51.0717 16.0898C49.6967 17.5199 48.5882 19.1945 47.8095 21.0293ZM52.4862 22.2684L53.1425 17.1844C51.303 18.9295 49.9502 21.157 49.2652 23.6303L52.4862 22.2684ZM50.1377 25.6905L54.4334 23.874L58.9339 27.2615C55.9266 27.7043 52.8267 27.1594 50.1377 25.6905ZM56.8159 22.8667L61.7128 26.5527C61.9191 26.4767 62.1245 26.3975 62.3282 26.3115C63.8615 25.6632 65.2431 24.7529 66.427 23.6445L62.1166 20.6256L56.8159 22.8667Z" fill="#7FB800"/>
</svg>
