<svg width="68" height="52" viewBox="0 0 68 52" fill="none" xmlns="http://www.w3.org/2000/svg">
<path d="M52.6229 19.9935C52.2709 19.9935 51.9282 19.8548 51.6802 19.6137C51.4309 19.3725 51.2896 19.0381 51.2896 18.6972C51.2896 18.355 51.4309 18.0218 51.6802 17.7807C51.9282 17.5383 52.2709 17.4009 52.6229 17.4009C52.9736 17.4009 53.3176 17.5383 53.5656 17.7807C53.8136 18.0218 53.9562 18.355 53.9562 18.6972C53.9562 19.0381 53.8136 19.3725 53.5656 19.6137C53.3176 19.8548 52.9736 19.9935 52.6229 19.9935Z" fill="#7FB800"/>
<path d="M33.3934 8.71564C33.0414 8.71564 32.6987 8.57694 32.4507 8.33582C32.2027 8.09471 32.0601 7.76027 32.0601 7.41934C32.0601 7.07712 32.2027 6.74397 32.4507 6.50286C32.6987 6.26045 33.0414 6.12305 33.3934 6.12305C33.7441 6.12305 34.0881 6.26045 34.3361 6.50286C34.5841 6.74397 34.7267 7.07842 34.7267 7.41934C34.7267 7.76027 34.5841 8.09471 34.3361 8.33582C34.0881 8.57694 33.7441 8.71564 33.3934 8.71564Z" fill="#7FB800"/>
<path fill-rule="evenodd" clip-rule="evenodd" d="M66.672 15.8505H63.8455C62.4429 15.8505 61.1486 15.1289 60.3836 13.9204C58.8427 11.4863 56.7486 9.46573 54.285 8.02581L55.8984 1.94799C56.0883 1.23279 55.6679 0.497746 54.9593 0.306042C50.5825 -0.877696 46.046 1.47342 44.375 5.61584H39.3721C38.6386 5.61584 38.044 6.21602 38.044 6.95642C38.044 7.69683 38.6386 8.29701 39.3721 8.29701H45.3227C45.9191 8.29701 46.4423 7.89577 46.6022 7.31597C47.3991 4.42607 50.0923 2.55126 52.952 2.68786L51.4475 8.35533C51.2843 8.97052 51.5722 9.61668 52.1365 9.90142C54.5882 11.1384 56.6659 13.0273 58.1452 15.3639C59.4008 17.3474 61.5318 18.5317 63.8455 18.5317H65.3439V24.1871L60.5751 26.927C60.2715 27.1014 60.0483 27.3895 59.9537 27.7289C58.345 33.4995 53.5117 37.8018 47.6402 38.6896C47.0647 38.7766 46.6123 39.2316 46.5241 39.8122L45.6764 45.3912C45.6181 45.7742 45.727 46.1639 45.9747 46.4598C46.6698 47.29 47.1452 48.275 47.3655 49.3191H42.4589V35.7121C42.4589 34.9717 41.8643 34.3716 41.1308 34.3716C40.3973 34.3716 39.8027 34.9717 39.8027 35.7121V38.8625H28.5992C29.6221 37.6026 30.2371 35.9929 30.2371 34.2406C30.2371 33.5002 29.6425 32.9 28.909 32.9C28.1755 32.9 27.5809 33.5002 27.5809 34.2406C27.5809 36.789 25.5268 38.8625 23.0019 38.8625C22.3827 38.8625 21.8459 39.2943 21.7074 39.9035L20.4823 45.2948C20.389 45.7059 20.4927 46.1376 20.7624 46.4598C21.4576 47.29 21.9329 48.275 22.1532 49.3191H17.2466L17.2465 46.4744C17.2465 41.9428 15.464 37.6249 12.2274 34.3162C9.41178 31.438 7.8612 27.6251 7.8612 23.5798C7.8612 15.1529 14.6532 8.29714 23.0018 8.29714H27.4187C28.1522 8.29714 28.7468 7.69696 28.7468 6.95656C28.7468 6.21615 28.1522 5.61597 27.4187 5.61597H23.0018C16.0161 5.61597 9.9587 9.70034 7.04733 15.6269C6.41461 16.0793 5.66436 16.2862 4.87532 16.224C4.23344 16.1734 3.64999 15.8736 3.23243 15.3799C2.81487 14.8861 2.613 14.2575 2.66413 13.6096C2.73704 12.6856 3.54135 11.9919 4.45696 12.0647C5.18809 12.1221 5.82732 11.5709 5.88469 10.8327C5.94193 10.0946 5.39541 9.44938 4.66415 9.3916C2.2908 9.20472 0.205379 11.0008 0.0163875 13.3966C-0.0911903 14.759 0.333543 16.0815 1.21223 17.1205C2.09091 18.1594 3.31823 18.7903 4.66827 18.8969C4.82538 18.9092 5.59822 18.9019 5.82533 18.8756C5.42171 20.3756 5.20496 21.9524 5.20496 23.5796C5.20496 28.3345 7.02767 32.8165 10.3374 36.1997C13.0799 39.0034 14.5904 42.6522 14.5904 46.4742L14.5905 49.3873C14.5905 50.8281 15.7517 52 17.1789 52H29.6197C30.3532 52 30.9478 51.3998 30.9478 50.6594C30.9478 48.7063 30.322 46.7987 29.1749 45.2225L29.734 41.5434H39.8025V49.3873C39.8025 50.8281 40.9637 52 42.3909 52H54.829C55.5625 52 56.1571 51.3998 56.1571 50.6594C56.1571 48.7005 55.5279 46.7877 54.3744 45.209C54.5525 43.8541 55.0122 40.3768 55.283 38.5012C58.5841 36.2674 61.1178 32.9417 62.352 28.991L67.3289 26.1315C67.7438 25.8931 68 25.4483 68 24.9664V17.191C68.0001 16.4507 67.4055 15.8505 66.672 15.8505ZM24.85 49.319C24.6351 47.8642 24.0752 46.4734 23.2128 45.2721L24.06 41.5436H27.047L26.4623 45.391C26.404 45.774 26.5129 46.1638 26.7608 46.4596C27.4559 47.2899 27.9311 48.275 28.1516 49.319H24.85ZM48.3892 45.2227C49.2718 46.4352 49.8442 47.8442 50.062 49.319H53.3609C53.1406 48.2749 52.6652 47.2898 51.9701 46.4596C51.7287 46.1713 51.6189 45.7935 51.6678 45.4191C51.6896 45.2519 52.0548 42.4578 52.3778 40.0964C51.3023 40.5609 50.1741 40.9217 49.0057 41.166L48.3892 45.2227Z" fill="#7FB800"/>
</svg>
