<svg width="11" height="11" viewBox="0 0 11 11" fill="none" xmlns="http://www.w3.org/2000/svg">
<path d="M5.004 10.406C4.884 10.406 4.782 10.364 4.698 10.28C4.614 10.196 4.572 10.094 4.572 9.974V6.464H1.116C0.996 6.464 0.894 6.422 0.81 6.338C0.726 6.254 0.684 6.146 0.684 6.014V5.078C0.684 4.946 0.726 4.844 0.81 4.772C0.894 4.688 0.996 4.646 1.116 4.646H4.572V1.226C4.572 1.094 4.614 0.992 4.698 0.92C4.782 0.836 4.884 0.793999 5.004 0.793999H6.048C6.18 0.793999 6.282 0.836 6.354 0.92C6.438 0.992 6.48 1.094 6.48 1.226V4.646H9.936C10.068 4.646 10.17 4.688 10.242 4.772C10.326 4.844 10.368 4.946 10.368 5.078V6.014C10.368 6.146 10.326 6.254 10.242 6.338C10.158 6.422 10.056 6.464 9.936 6.464H6.48V9.974C6.48 10.094 6.438 10.196 6.354 10.28C6.282 10.364 6.18 10.406 6.048 10.406H5.004Z" fill="#ADB5BD"/>
</svg>
