<svg width="19" height="35" viewBox="0 0 19 35" fill="none" xmlns="http://www.w3.org/2000/svg">
<path d="M17.638 34.7864C17.9523 35.0784 18.4533 35.0699 18.7569 34.7677C19.053 34.4728 19.053 34.0054 18.7569 33.7106L1.90921 17.5086L18.7585 1.30815C19.0728 1.01619 19.0815 0.534557 18.7779 0.232254C18.4743 -0.0699768 17.9734 -0.0783234 17.659 0.213566C17.6524 0.2197 17.646 0.225906 17.6396 0.232254L0.231668 16.9714C-0.0772228 17.2685 -0.0772228 17.7501 0.231668 18.0473L17.638 34.7864Z" fill="url(#paint0_linear)"/>
<path d="M18.207 0C18.6442 -0.000785828 18.9992 0.339314 19 0.759518C19.0004 0.962093 18.9167 1.15647 18.7674 1.29955L1.91152 17.4996L18.7674 33.6995C19.077 33.997 19.077 34.4793 18.7674 34.7769C18.4579 35.0744 17.9561 35.0744 17.6465 34.7769L0.23176 18.0382C-0.0772533 17.7411 -0.0772533 17.2595 0.23176 16.9623L17.6465 0.22369C17.795 0.0805321 17.9967 0 18.207 0Z" fill="url(#paint1_linear)"/>
<defs>
<linearGradient id="paint0_linear" x1="-9.81555" y1="3.61789" x2="23.9704" y2="41.6224" gradientUnits="userSpaceOnUse">
<stop stop-color="#7FB800"/>
<stop offset="1" stop-color="#0F9B0F"/>
</linearGradient>
<linearGradient id="paint1_linear" x1="-9.81555" y1="3.61789" x2="23.9704" y2="41.6224" gradientUnits="userSpaceOnUse">
<stop stop-color="#7FB800"/>
<stop offset="1" stop-color="#0F9B0F"/>
</linearGradient>
</defs>
</svg>
