<svg width="106" height="74" viewBox="0 0 106 74" fill="none" xmlns="http://www.w3.org/2000/svg">
<path fill-rule="evenodd" clip-rule="evenodd" d="M0 24.8045C0 11.1273 11.215 0 25 0C38.785 0 50 11.1273 50 24.8045C50 52.7401 38.6083 71.2709 38.1235 72.046L36.9012 74H18.6546L20.1581 68.7381C21.6275 63.5956 23.9583 54.3036 23.9583 51.2626C23.9583 50.5203 23.936 49.9779 23.906 49.5843C17.5579 49.3134 11.6317 46.6985 7.16125 42.1819C2.54333 37.5161 0 31.3448 0 24.8045ZM29.5956 65.7318H32.1227C34.8258 60.5299 41.6667 45.3343 41.6667 24.8045C41.6667 15.6863 34.19 8.26816 25 8.26816C15.81 8.26816 8.33333 15.6863 8.33333 24.8045C8.33333 33.7471 15.6617 41.1632 24.6694 41.3364L24.8512 41.341C28.5058 41.3608 30.2875 43.223 31.1394 44.7865C32.0958 46.5419 32.2917 48.6449 32.2917 51.2626C32.2917 54.5614 30.7929 61.0636 29.5956 65.7318Z" fill="url(#paint0_linear)"/>
<path fill-rule="evenodd" clip-rule="evenodd" d="M56 24.8045C56 11.1273 67.215 0 81 0C94.785 0 106 11.1273 106 24.8045C106 52.7401 94.6083 71.2709 94.1235 72.046L92.9012 74H74.6546L76.1581 68.7381C77.6275 63.5956 79.9583 54.3036 79.9583 51.2626C79.9583 50.5203 79.936 49.9779 79.906 49.5843C73.5579 49.3134 67.6317 46.6985 63.1613 42.1819C58.5433 37.5161 56 31.3448 56 24.8045ZM85.5956 65.7318H88.1227C90.8258 60.5299 97.6667 45.3343 97.6667 24.8045C97.6667 15.6863 90.19 8.26816 81 8.26816C71.81 8.26816 64.3333 15.6863 64.3333 24.8045C64.3333 33.7471 71.6617 41.1632 80.6694 41.3364L80.8512 41.341C84.5058 41.3608 86.2875 43.223 87.1394 44.7865C88.0958 46.5419 88.2917 48.6449 88.2917 51.2626C88.2917 54.5614 86.7929 61.0636 85.5956 65.7318Z" fill="url(#paint1_linear)"/>
<defs>
<linearGradient id="paint0_linear" x1="75.8304" y1="66.3507" x2="7.79132" y2="-28.9091" gradientUnits="userSpaceOnUse">
<stop stop-color="#7FB800"/>
<stop offset="1" stop-color="#0F9B0F"/>
</linearGradient>
<linearGradient id="paint1_linear" x1="131.83" y1="66.3507" x2="63.7913" y2="-28.9091" gradientUnits="userSpaceOnUse">
<stop stop-color="#7FB800"/>
<stop offset="1" stop-color="#0F9B0F"/>
</linearGradient>
</defs>
</svg>
