<svg width="60" height="60" viewBox="0 0 60 60" fill="none" xmlns="http://www.w3.org/2000/svg">
<path fill-rule="evenodd" clip-rule="evenodd" d="M57.0258 29.3992H57.9469C59.0999 29.3933 60.0627 30.4049 59.9967 31.5611C59.6869 36.9885 57.3945 42.0995 53.5416 45.9527C51.009 48.4846 47.9719 50.3271 44.6579 51.3892V53.8945C44.6579 57.2611 41.919 60 38.5525 60H21.4477C18.0811 60 15.3422 57.2611 15.3422 53.8945V51.3856C11.3105 50.0919 7.69641 47.6522 4.94297 44.274C4.63629 43.8977 4.69266 43.3442 5.06895 43.0375C5.44535 42.7304 5.99895 42.7872 6.30551 43.1634C10.2544 48.0099 15.9512 50.6859 22.1325 50.6874H37.8676C43.3481 50.6728 48.3632 48.6456 52.2986 44.7099C55.8459 41.1621 57.9565 36.4569 58.2417 31.4608C58.2519 31.2815 58.1407 31.1638 57.9469 31.1569H2.05336C1.86141 31.163 1.74821 31.282 1.7584 31.4606C1.92879 34.4435 2.7286 37.2861 4.13555 39.9096C4.365 40.3374 4.20422 40.8701 3.77649 41.0995C3.34887 41.3292 2.81602 41.1683 2.58656 40.7405C1.05762 37.8898 0.188557 34.8013 0.00363492 31.5611C-0.0623416 30.405 0.894143 29.3927 2.05336 29.3992H9.13114C8.95793 28.8215 8.74852 28.2917 8.44453 27.9176C8.05153 27.4334 7.25057 27.0656 6.40271 26.6762L6.40242 26.6761L6.40238 26.6761C5.18692 26.1179 3.80941 25.4853 3.16242 24.2227C2.51524 22.9606 2.80637 21.4727 3.06323 20.1599L3.06328 20.1597L3.0634 20.1591C3.24242 19.2439 3.41153 18.3795 3.24867 17.7789C3.04986 17.0478 2.40454 16.2821 1.78043 15.5415L1.78041 15.5415L1.7804 15.5415L1.77996 15.5409L1.77992 15.5409C0.910286 14.5091 0.0110176 13.4421 0.000119295 12.1539C-0.0133573 10.5291 1.1175 9.31021 2.11524 8.23489C2.66649 7.64087 3.18703 7.0799 3.39164 6.58068C3.63504 5.98747 3.75399 5.19329 3.86883 4.42513C4.10426 2.85036 4.37133 1.0656 5.85856 0.303997C7.34527 -0.45799 8.94973 0.367214 10.3655 1.09536L10.3659 1.0956C11.0565 1.45091 11.7705 1.81818 12.3939 1.96689C12.9188 2.09204 13.678 1.99712 14.4817 1.89646L14.4823 1.89638C15.938 1.71429 17.588 1.50788 18.8989 2.46775C19.938 3.22947 20.2789 4.58216 20.6085 5.89032C20.8452 6.8297 21.09 7.80095 21.5678 8.39005C21.9028 8.80196 22.5356 9.13009 23.241 9.4595C23.4704 7.94697 23.7824 6.30107 25.1941 5.57755C26.6812 4.81517 28.2852 5.64036 29.701 6.36869L29.7019 6.36915C30.3925 6.72447 31.1065 7.09173 31.7298 7.24044C32.2543 7.36577 33.0129 7.27077 33.8164 7.17017L33.8176 7.17001L33.8182 7.16993C35.2739 6.98784 36.924 6.78144 38.2349 7.7413C39.274 8.50302 39.6149 9.85571 39.9444 11.1639C40.1811 12.1033 40.4259 13.0745 40.9037 13.6636C41.2962 14.1461 42.0968 14.5137 42.9444 14.9029L42.9446 14.9029C44.1604 15.4611 45.5383 16.0937 46.1855 17.3567C46.8324 18.6192 46.5417 20.1063 46.2852 21.4185L46.2851 21.419L46.2849 21.4197C46.1059 22.3353 45.9368 23.2 46.1003 23.8014C46.2655 24.4098 46.7394 25.0417 47.2532 25.663C47.6814 24.4008 48.0686 23.115 48.4076 21.8235C48.5309 21.354 49.011 21.0733 49.4808 21.1964C49.9502 21.3197 50.231 21.8002 50.1077 22.2696C49.6635 23.9623 49.1392 25.6454 48.5489 27.2811C49.0006 27.9348 49.3327 28.6274 49.3465 29.3993H55.2485C55.1604 28.7624 55.1337 28.1113 55.2966 27.5115C55.5785 26.4732 56.2982 25.6191 56.9944 24.7931L56.9946 24.7928L56.9956 24.7916L56.9956 24.7916C57.6062 24.0669 58.2375 23.3177 58.2423 22.7365C58.2492 21.9056 57.4805 21.077 56.737 20.2757C56.1469 19.6398 55.5368 18.9824 55.2307 18.2366C54.9282 17.4988 54.8029 16.6614 54.6818 15.8515C54.5088 14.6945 54.3455 13.6018 53.7431 13.2931C53.14 12.9841 52.1574 13.4898 51.1169 14.0253L51.1165 14.0255C50.3889 14.4 49.6364 14.7872 48.8618 14.9725C48.1555 15.141 47.3723 15.0679 46.6311 14.9782C46.1493 14.9201 45.8058 14.4822 45.8639 14.0003C45.9222 13.5184 46.3607 13.1749 46.842 13.2332C47.3995 13.3006 48.0298 13.3638 48.4534 13.2628C49.0209 13.127 49.6774 12.7893 50.3121 12.4626C51.6369 11.7808 53.1379 11.0084 54.5449 11.7287C55.9505 12.4494 56.2001 14.1186 56.4203 15.5915L56.4205 15.5929C56.5261 16.2988 56.6353 17.0288 56.857 17.5692C57.042 18.0199 57.5192 18.5343 58.0245 19.0789L58.0255 19.08C58.9572 20.084 60.0129 21.2218 60.0001 22.7511C59.9899 23.9661 59.1505 24.9621 58.3386 25.9254L58.3386 25.9255L58.3385 25.9255C57.7655 26.6055 57.173 27.3087 56.9929 27.9721C56.8903 28.3497 56.9365 28.8591 57.0258 29.3992ZM14.9822 18.908C16.4801 22.5529 18.3513 26.0796 20.5453 29.3992V29.3993H22.0843C21.7874 28.5823 21.6328 27.7153 21.6328 26.8361C21.6328 23.9722 23.2468 21.4791 25.6126 20.216C25.3877 19.8447 25.1877 19.432 25.0676 18.9878C24.7969 17.9916 25.0139 16.8818 25.2238 15.8084L25.2238 15.8083L25.2238 15.8081C25.4355 14.7254 25.6543 13.6058 25.285 12.8849C24.9155 12.1638 23.8782 11.6876 22.875 11.227C21.8816 10.7711 20.8545 10.2995 20.2031 9.49841C19.4801 8.60708 19.1871 7.44435 18.9039 6.31993L18.9037 6.31926C18.6502 5.31318 18.388 4.27293 17.8601 3.88595C17.1129 3.33892 15.8861 3.49243 14.6999 3.64091L14.6986 3.64108C13.7748 3.75657 12.8196 3.87601 11.9857 3.67689C11.1555 3.47884 10.3452 3.062 9.56156 2.65888L9.55937 2.65775C8.41948 2.07141 7.3437 1.51805 6.65989 1.86845C5.97599 2.21872 5.79681 3.41669 5.60708 4.6851L5.60707 4.68517L5.60692 4.68622V4.68623C5.47653 5.55754 5.34175 6.4583 5.01774 7.24782C4.69223 8.04156 4.03726 8.74755 3.40393 9.43021L3.40392 9.43022L3.40371 9.43044C2.59067 10.3067 1.75008 11.2127 1.75781 12.1391C1.76332 12.7936 2.45496 13.6144 3.12387 14.4081C3.87129 15.2949 4.64403 16.2117 4.94496 17.3181C5.21524 18.3147 4.99829 19.4237 4.78847 20.4962L4.78828 20.4972L4.78823 20.4974C4.57637 21.5805 4.3573 22.7005 4.72664 23.4208C5.09624 24.1419 6.13305 24.618 7.13591 25.0786L7.13602 25.0786C8.13012 25.5351 9.15785 26.0071 9.80906 26.8093C10.4065 27.5445 10.7099 28.4665 10.9573 29.3992H18.4498C16.4626 26.2704 14.7524 22.9731 13.3563 19.5763C12.2981 17.003 11.4012 14.3243 10.6907 11.6147C10.5676 11.1451 10.8484 10.6648 11.318 10.5416C11.7874 10.4187 12.2678 10.6993 12.3911 11.1689C13.0818 13.8031 13.9535 16.4067 14.9822 18.908ZM34.2711 29.3992H23.9946C23.5988 28.6067 23.3906 27.7299 23.3906 26.8359C23.3906 23.6697 25.9665 21.0938 29.1328 21.0938C32.2991 21.0938 34.875 23.6697 34.875 26.8359C34.8751 27.73 34.6669 28.6068 34.2711 29.3992ZM36.1814 29.3992H40.4118C40.8076 28.6068 41.0157 27.73 41.0156 26.8359C41.0156 23.6697 38.4397 21.0938 35.2734 21.0938C34.8705 21.0938 34.4766 21.1364 34.0922 21.2166C35.6487 22.5919 36.6328 24.6006 36.6328 26.8359C36.6328 27.7153 36.4784 28.5822 36.1814 29.3992ZM42.322 29.3992C42.619 28.5822 42.7736 27.7153 42.7736 26.8359C42.7736 22.7004 39.4091 19.3359 35.2736 19.3359C34.2131 19.3359 33.159 19.5624 32.1986 19.9937C31.2619 19.5724 30.2248 19.3359 29.1329 19.3359C28.4957 19.3359 27.8768 19.4165 27.2856 19.5667C27.0647 19.2444 26.8614 18.8862 26.7643 18.5277C26.6009 17.9264 26.77 17.0616 26.949 16.1461L26.949 16.146L26.9491 16.1453L26.9492 16.1448C27.2057 14.8327 27.4964 13.3455 26.8495 12.083C26.4272 11.2589 25.6935 10.704 24.8972 10.2624C24.9105 10.1747 24.9238 10.0859 24.9371 9.99631C25.1143 8.80821 25.3104 7.49299 25.9961 7.14177C26.68 6.79143 27.756 7.34492 28.8961 7.93136L28.8977 7.9322C29.6814 8.33532 30.4917 8.75216 31.3219 8.95021C32.1557 9.1493 33.1106 9.02993 34.0343 8.91445L34.0361 8.91423C35.2222 8.76575 36.4491 8.61236 37.1963 9.15927C37.7242 9.54639 37.9864 10.5866 38.2399 11.5927L38.2399 11.5928L38.24 11.5933C38.5233 12.7177 38.8163 13.8804 39.5393 14.7717C40.1906 15.5728 41.2178 16.0444 42.2112 16.5004C43.2144 16.9609 44.2516 17.4372 44.6211 18.1582C44.9905 18.8791 44.7716 19.9988 44.56 21.0814L44.56 21.0816L44.5599 21.0817C44.3501 22.1551 44.1331 23.2649 44.404 24.2619C44.7045 25.369 45.4774 26.2862 46.225 27.1732C46.8797 27.9501 47.5545 28.7526 47.5871 29.3992H42.322ZM38.5525 58.2422C40.9498 58.2422 42.9001 56.2918 42.9001 53.8945H42.9V51.8733C41.2688 52.2503 39.5832 52.4452 37.8676 52.4452H22.1325C20.4179 52.4452 18.7317 52.2484 17.1001 51.8701V53.8945C17.1001 56.2918 19.0505 58.2422 21.4478 58.2422H38.5525Z" fill="white"/>
</svg>
