<svg width="48" height="60" viewBox="0 0 48 60" fill="none" xmlns="http://www.w3.org/2000/svg">
<path fill-rule="evenodd" clip-rule="evenodd" d="M4.47513 40.537C4.47513 51.5629 7.84476 57.8865 13.7202 57.8865C14.835 57.8865 16.2129 56.645 17.2029 55.562C19.2521 58.4541 21.5854 60 24.0002 60C26.3643 60 28.6806 58.5105 30.73 55.6827C31.7055 56.7106 33.0826 57.8865 34.2801 57.8865C37.6131 57.8865 40.0927 56.0516 41.6495 52.4329C42.8942 49.5404 43.5252 45.5376 43.5252 40.537C43.5252 37.612 44.6769 34.8036 45.7907 32.088L45.7907 32.0879C47.2532 28.522 48.7655 24.8346 47.565 20.9653C46.6511 18.0197 44.1208 15.9008 40.7964 15.2972C39.5858 15.0832 38.341 15.1461 37.1593 15.4809C35.8033 13.9249 34.4702 12.8854 32.9932 12.2299C31.0764 11.3781 28.9576 11.2344 26.6851 11.7972C26.0897 7.63517 24.7521 4.62786 22.6415 2.67761C20.5159 0.714087 17.5992 -0.177194 13.9742 0.029102C13.5807 0.0514574 13.2759 0.374585 13.2843 0.760342L13.3453 3.54331C13.3533 3.91031 13.6431 4.21213 14.0168 4.24264C16.5639 4.44989 18.2734 5.1032 19.2422 6.23974C20.6302 7.86717 20.572 10.4828 20.2716 13.7825C18.8608 12.8613 17.0191 12.5539 15.0989 12.9621C13.2805 13.3486 11.7919 14.3301 11.0944 15.5545C9.83865 15.1575 8.5024 15.0691 7.20355 15.2973C3.87922 15.9009 1.34894 18.0198 0.43499 20.9654C-0.765499 24.8347 0.746794 28.5221 2.20928 32.0881L2.2093 32.0881C3.32347 34.8036 4.47513 37.612 4.47513 40.537ZM35.6898 16.0141C34.1926 16.6926 32.7201 17.7748 31.3285 19.2338C30.0825 18.209 28.6184 17.4696 27.0432 17.0696C27.0344 15.7058 26.9721 14.428 26.8564 13.2362C31.0886 12.1072 33.7842 13.9479 35.6898 16.0141ZM14.7962 2.87805C17.401 3.18199 19.2279 3.98375 20.3677 5.32037H20.3675C22.3546 7.65035 21.9979 11.2586 21.5848 15.4367C21.5361 15.9303 21.4864 16.4355 21.4391 16.9495C22.8006 16.6773 24.1983 16.6245 25.5772 16.793C25.4998 10.3768 24.2086 6.09691 21.6362 3.72056C19.9259 2.14023 17.6739 1.38808 14.7647 1.43505L14.7962 2.87805ZM15.4109 14.3636C17.2601 13.9707 18.9927 14.3956 20.107 15.4991C20.0472 16.1049 19.9869 16.7269 19.9317 17.3636C18.7344 17.7837 17.6226 18.408 16.6476 19.2076C15.314 17.8146 13.9059 16.768 12.4736 16.0901C13.0053 15.3014 14.1021 14.6411 15.4104 14.3636H15.4109ZM7.47105 16.7075C4.69513 17.2116 2.58899 18.9591 1.83717 21.3822C0.786481 24.7685 2.13812 28.0642 3.56923 31.5536C4.73493 34.3957 5.94018 37.3348 5.94018 40.537C5.94018 45.1924 6.58408 49.1114 7.80203 51.8699C9.14451 54.9104 11.1356 56.4522 13.7202 56.4522C13.9372 56.4522 14.8658 56.0451 16.381 54.304C15.7348 53.2234 15.1621 52.1021 14.6666 50.9477C14.5617 50.7115 14.5943 50.4383 14.7519 50.2321C14.9096 50.0259 15.1681 49.9183 15.4292 49.9503C15.6902 49.9822 15.9138 50.1487 16.0148 50.3865C16.5417 51.6192 17.1646 52.8104 17.878 53.9496C17.8962 53.9743 17.9128 54.0001 17.9276 54.0268C19.8043 56.9501 21.9272 58.5657 24.0002 58.5657C26.5367 58.5657 28.6202 56.2448 29.9215 54.2978C31.708 51.6247 33.2216 47.8626 34.1838 43.7045C34.2363 43.4493 34.426 43.2421 34.6793 43.163C34.9326 43.0839 35.2098 43.1454 35.4035 43.3237C35.5973 43.5019 35.6772 43.769 35.6122 44.0214C34.6863 48.0232 33.257 51.6867 31.5578 54.4406C32.8031 55.8179 33.826 56.4522 34.2804 56.4522C37.0057 56.4522 38.9747 54.9553 40.2993 51.8762C41.4677 49.1605 42.0602 45.3454 42.0602 40.537C42.0602 37.3348 43.2654 34.3957 44.4311 31.5536C45.8623 28.0644 47.2139 24.7686 46.1632 21.3822C45.4114 18.9591 43.3054 17.2116 40.5293 16.7075C37.8793 16.2266 35.0075 17.4726 32.3895 20.2228C33.0413 20.9139 33.6133 21.6732 34.0953 22.4869C34.2992 22.829 34.1813 23.2682 33.8319 23.4679C33.4825 23.6676 33.0339 23.5521 32.83 23.2101C32.3108 22.3269 31.6718 21.5166 30.9304 20.8014C30.9277 20.7993 30.9249 20.7973 30.9221 20.7953C30.917 20.7915 30.9118 20.7877 30.9068 20.7835C30.882 20.7621 30.8588 20.7391 30.8371 20.7147C29.0096 19.0156 26.6917 18.1312 24.0002 18.1312C21.488 18.1312 19.3094 18.8782 17.5251 20.352C15.5823 21.9567 14.2021 24.354 13.423 27.4771C13.3619 27.7271 13.1688 27.9259 12.9169 27.9983C12.665 28.0707 12.3928 28.0056 12.2033 27.8277C12.0139 27.6497 11.9363 27.3861 11.9998 27.1367C12.7153 24.2666 13.9416 21.9272 15.5844 20.195C14.1864 18.733 12.7164 17.6989 11.247 17.1278C11.2325 17.1226 11.2182 17.1174 11.2041 17.1115C9.94357 16.6293 8.68387 16.4871 7.47105 16.7075Z" fill="white"/>
<path d="M5.57517 28.166C5.7016 28.6258 5.84969 29.1065 6.02773 29.6359C6.25739 30.3186 6.50539 30.9869 6.7178 31.5505C6.80337 31.786 7.00225 31.9548 7.23845 31.9922C7.47464 32.0297 7.71166 31.9301 7.85893 31.7314C8.00621 31.5328 8.04098 31.2659 7.94996 31.0326C7.74219 30.4809 7.49971 29.8279 7.27746 29.1669C7.10804 28.6635 6.96801 28.2083 6.84877 27.7752C6.69485 27.2247 6.57003 26.6656 6.47489 26.1004C6.39581 25.628 6.34597 25.1506 6.32569 24.6713C6.31043 24.2848 6.00142 23.9845 5.63551 24.0006C5.26959 24.0167 4.98533 24.3431 5.00059 24.7297C5.02331 25.27 5.07936 25.8081 5.16835 26.3407C5.27177 26.9566 5.40758 27.566 5.57517 28.166Z" fill="white"/>
<path d="M8.04872 34.9837C8.24442 35.5209 8.40842 36.0106 8.55047 36.4811C8.62537 36.7292 8.82982 36.9193 9.08682 36.9799C9.34381 37.0404 9.61431 36.9622 9.79641 36.7747C9.97852 36.5872 10.0446 36.3189 9.96967 36.0709C9.81984 35.5746 9.64745 35.06 9.44263 34.4976C9.35862 34.2479 9.14292 34.0624 8.8791 34.0129C8.61527 33.9635 8.34478 34.0578 8.17241 34.2594C8.00005 34.461 7.95289 34.7382 8.04921 34.9836L8.04872 34.9837Z" fill="white"/>
</svg>
