<svg width="59" height="59" viewBox="0 0 59 59" fill="none" xmlns="http://www.w3.org/2000/svg">
<path fill-rule="evenodd" clip-rule="evenodd" d="M41.8425 29.964C42.1941 30.0909 42.4587 30.3744 42.5617 30.7217C42.8659 31.655 44.1736 36.5139 40.0585 40.5738C37.6773 42.9229 35.0338 43.4836 33.0538 43.4836C32.3127 43.4836 31.6656 43.405 31.1587 43.3124V50.8487C31.1587 51.4844 30.6363 52 29.9917 52C29.3472 52 28.8247 51.4844 28.8247 50.8487V43.3153C28.3202 43.4067 27.6794 43.4837 26.9462 43.4837C24.966 43.4837 22.323 42.9233 19.9415 40.5739C15.8264 36.5142 17.1341 31.6552 17.4383 30.7218C17.5413 30.3745 17.806 30.0909 18.1576 29.964C18.2286 29.9384 18.8038 29.7376 19.6973 29.6087C15.8802 25.6018 17.1405 20.9204 17.4384 20.0062C17.5414 19.6588 17.806 19.3752 18.1576 19.2484C18.3217 19.1891 21.1864 18.1926 24.4472 19.3177C24.2627 18.5727 24.1547 17.7532 24.1547 16.854C24.1547 10.6348 29.2959 8.20751 29.5148 8.10723C29.8541 7.95158 30.2447 7.96747 30.5665 8.14131C31.4508 8.58929 35.8579 11.1127 35.8579 16.854C35.8579 17.7513 35.7504 18.5691 35.5666 19.313C38.8216 18.1954 41.6786 19.1892 41.8425 19.2484C42.1941 19.3752 42.4587 19.6588 42.5617 20.0062C42.8597 20.9204 44.1199 25.6018 40.3028 29.6087C41.1963 29.7376 41.7715 29.9384 41.8425 29.964ZM28.6534 41.0039C28.7244 40.6881 28.7988 40.2489 28.8247 39.7263V38.9582C28.7518 37.5229 28.2492 35.6981 26.5665 34.038C25.6834 33.1669 24.7517 32.6189 23.8542 32.2832C23.7436 32.2469 23.6324 32.208 23.5208 32.1668C21.8263 31.6243 20.2957 31.8117 19.5114 31.9799C19.2178 33.3012 18.9398 36.3293 21.5921 38.9456C24.2849 41.6023 27.4059 41.2774 28.6534 41.0039ZM28.8247 29.0109C28.7988 29.5335 28.7244 29.9727 28.6534 30.2884C27.8805 30.458 26.3883 30.6463 24.7245 30.1339C24.5558 30.0698 24.3881 30.0114 24.2216 29.9586C23.3512 29.6194 22.4499 29.0764 21.5919 28.2301C18.9398 25.6136 19.2178 22.5857 19.5114 21.2646C20.7576 20.9972 23.8875 20.6797 26.5665 23.3226C26.5756 23.3316 26.5842 23.3406 26.5928 23.3495L26.5929 23.3497L26.593 23.3498C26.6004 23.3576 26.6079 23.3653 26.6156 23.3731C26.718 23.4864 26.8207 23.5947 26.9233 23.6988C28.3201 25.2543 28.7572 26.9152 28.8247 28.2428V29.0109ZM28.5801 22.0701C29.1154 22.6215 29.6424 23.0029 30.0082 23.2343C30.3313 23.0312 30.7782 22.7122 31.2447 22.2647C31.4115 22.0752 31.5884 21.8866 31.7775 21.6999C32.6868 20.6328 33.5237 19.0541 33.5237 16.854C33.5237 13.1515 31.1541 11.2043 30.0004 10.4759C28.9231 11.1538 26.4887 13.1011 26.4887 16.854C26.4887 19.1855 27.4385 20.8246 28.4135 21.8932C28.4703 21.952 28.5255 22.0111 28.5801 22.0701ZM31.166 28.6378C31.1643 27.2861 31.5188 25.4975 32.9698 23.8177C33.1417 23.6492 33.3146 23.4678 33.4859 23.2729C36.1639 20.6743 39.2485 20.9917 40.4882 21.2623C40.7819 22.5822 41.0618 25.6121 38.4079 28.2301C37.5516 29.0751 36.652 29.6176 35.7832 29.957C35.6138 30.0106 35.4433 30.0699 35.2718 30.1352C33.6082 30.6467 32.117 30.4578 31.3471 30.2888C31.2607 29.905 31.1692 29.3415 31.1659 28.6671L31.166 28.6378ZM31.349 41.0048C32.5935 41.2772 35.7147 41.6027 38.4079 38.9456C41.0618 36.3276 40.7819 33.2977 40.4882 31.9776C39.7158 31.8092 38.227 31.6227 36.5668 32.1339C36.3987 32.1979 36.2314 32.2559 36.0653 32.3086C35.1942 32.6478 34.2922 33.1909 33.4335 34.038C30.7496 36.6858 31.0776 39.7801 31.349 41.0048Z" fill="white"/>
<path fill-rule="evenodd" clip-rule="evenodd" d="M29.8534 0C31.9493 0 34.0428 0.214536 36.0755 0.637429C36.7056 0.768553 37.108 1.37589 36.9744 1.9941C36.8407 2.61219 36.2221 3.00705 35.5917 2.87604C33.7177 2.4861 31.7871 2.28838 29.8534 2.28838C14.6782 2.28838 2.3323 14.4018 2.3323 29.2913C2.3323 35.2481 4.35697 41.0633 8.04806 45.7646C8.65714 45.4641 9.33339 45.304 10.0349 45.304C11.2186 45.304 12.3314 45.7563 13.1684 46.5776C14.0053 47.3989 14.4663 48.4907 14.4663 49.6521C14.4663 50.8134 14.0054 51.9052 13.1684 52.7265C12.3314 53.5477 11.2186 54 10.0349 54C8.8513 54 7.73845 53.5477 6.9015 52.7265C6.06456 51.9052 5.60358 50.8134 5.60358 49.6521C5.60358 48.8042 5.85022 47.9941 6.3084 47.2987C2.23551 42.1746 0 35.8107 0 29.2913C0 21.4673 3.10534 14.1117 8.7439 8.57926C14.3825 3.04675 21.8793 0 29.8534 0ZM10.0349 47.5933C9.49735 47.5933 8.95987 47.794 8.55067 48.1956C8.15418 48.5847 7.93588 49.1018 7.93588 49.652C7.93588 50.2021 8.15418 50.7194 8.55067 51.1083C9.36907 51.9113 10.7008 51.9115 11.5192 51.1083C11.9157 50.7193 12.134 50.2021 12.134 49.652C12.134 49.1018 11.9157 48.5845 11.5192 48.1956C11.11 47.7941 10.5725 47.5933 10.0349 47.5933Z" fill="white"/>
<path fill-rule="evenodd" clip-rule="evenodd" d="M53.565 9.34793C53.565 10.1958 53.3258 11.0059 52.8814 11.7013C56.8318 16.8254 59 23.1893 59 29.7087C59 37.5327 55.9883 44.8886 50.5193 50.4209C45.0503 55.9531 37.779 59 30.0448 59C28.3288 59 26.6089 58.8468 24.9328 58.5447C24.3178 58.4339 23.9081 57.8397 24.0177 57.2176C24.1272 56.5953 24.715 56.1812 25.3297 56.2918C26.875 56.5704 28.4615 56.7116 30.0448 56.7116C44.7634 56.7116 56.7379 44.5982 56.7379 29.7087C56.7379 23.7519 54.7741 17.9367 51.1942 13.2353C50.6033 13.5358 49.9475 13.6959 49.267 13.6959C48.119 13.6959 47.0396 13.2437 46.2278 12.4224C45.4161 11.6012 44.969 10.5093 44.969 9.34793C44.969 8.18657 45.4161 7.09467 46.2278 6.27349C47.0396 5.4523 48.119 5 49.267 5C50.415 5 51.4944 5.45218 52.3062 6.27349C53.1179 7.09467 53.565 8.18657 53.565 9.34793ZM49.2671 11.4075C49.8109 11.4075 50.3223 11.1933 50.7067 10.8043C51.0913 10.4152 51.303 9.89805 51.303 9.34793C51.303 8.7978 51.0913 8.28051 50.7067 7.8916C50.3222 7.50258 49.8109 7.28838 49.2671 7.28838C48.7233 7.28838 48.2119 7.50258 47.8275 7.8916C47.0336 8.69471 47.0336 10.0013 47.8275 10.8043C48.2119 11.1934 48.7233 11.4075 49.2671 11.4075Z" fill="white"/>
<path d="M19.3657 55.074L18.9914 55.9971L19.3629 55.0729C18.8551 54.8667 18.2777 55.113 18.0725 55.6235C17.8673 56.1339 18.1125 56.7151 18.6199 56.9215L18.6506 56.9337C18.7674 56.9787 18.8877 57 19.0061 57C19.4053 57 19.7827 56.7569 19.9337 56.3604C20.1296 55.8461 19.8769 55.2709 19.3657 55.074Z" fill="white"/>
<path d="M40.379 2.07868L40.3614 2.0716C39.8525 1.86705 39.2749 2.11576 39.0713 2.62694C38.8676 3.13813 39.1152 3.71809 39.6242 3.92264L39.6355 3.92723C39.7574 3.97667 39.8831 4 40.007 4C40.3996 4 40.7714 3.76445 40.9275 3.37637C41.1328 2.86589 40.8873 2.28492 40.379 2.07868Z" fill="white"/>
</svg>
