<svg width="23" height="15" viewBox="0 0 23 15" fill="none" xmlns="http://www.w3.org/2000/svg">
<path d="M21.7344 2.34375C21.8125 2.65625 21.8776 3.04688 21.9297 3.51562C22.0078 3.98438 22.0599 4.45312 22.0859 4.92188C22.112 5.36458 22.125 5.78125 22.125 6.17188C22.151 6.5625 22.1641 6.88802 22.1641 7.14844V7.5C22.1641 9.84375 22.0208 11.5755 21.7344 12.6953C21.6042 13.138 21.3698 13.5286 21.0312 13.8672C20.6927 14.2057 20.2891 14.4401 19.8203 14.5703C19.3255 14.7005 18.388 14.8047 17.0078 14.8828C15.6276 14.9349 14.3646 14.974 13.2188 15H11.5C7.04688 15 4.27344 14.8568 3.17969 14.5703C2.16406 14.2839 1.52604 13.6589 1.26562 12.6953C1.13542 12.2005 1.03125 11.5234 0.953125 10.6641C0.901042 9.77865 0.861979 9.03646 0.835938 8.4375V7.5C0.835938 5.18229 0.979167 3.46354 1.26562 2.34375C1.39583 1.875 1.63021 1.47135 1.96875 1.13281C2.30729 0.794271 2.71094 0.559896 3.17969 0.429688C3.67448 0.299479 4.61198 0.208333 5.99219 0.15625C7.3724 0.078125 8.63542 0.0260417 9.78125 0H11.5C15.9531 0 18.7266 0.143229 19.8203 0.429688C20.2891 0.559896 20.6927 0.794271 21.0312 1.13281C21.3698 1.47135 21.6042 1.875 21.7344 2.34375ZM9.3125 10.7031L14.8984 7.5L9.3125 4.33594V10.7031Z" fill="#7FB800"/>
</svg>
